<?xml version="1.0" encoding="utf-8"?>
<!-- Generator: Adobe Illustrator 21.0.0, SVG Export Plug-In . SVG Version: 6.00 Build 0)  -->
<svg version="1.1" id="Layer_1" xmlns="http://www.w3.org/2000/svg" xmlns:xlink="http://www.w3.org/1999/xlink" x="0px" y="0px"
	 viewBox="0 0 1920 1080" style="enable-background:new 0 0 1920 1080;" xml:space="preserve">
<style type="text/css">
	.st0{fill:#FFFFFF;}
	.st1{opacity:0.3;fill:#993D31;}
	.st2{fill:#AB433B;}
	.st3{fill:#D8775E;}
	.st4{fill:#609FCC;}
	.st5{fill:#993D31;}
	.st6{fill:#F8E4BD;}
	.st7{fill:#FFF0D9;}
	.st8{fill:#FFF8F0;}
</style>
<rect class="st0" width="1920" height="1080"/>
<g>
	<path class="st1" d="M1034.8,653.6c-0.1-0.2-0.2-0.3-0.3-0.5v3.4h3v-0.1C1036.4,655.6,1035.5,654.7,1034.8,653.6z"/>
	<g>
		<g>
			<g>
				<path class="st2" d="M803.7,524.1c-1.6-1.8-3.8-2.7-6.7-2.7c-2.9,0-5.3,0.9-7.2,2.6c-1.9,1.7-2.9,3.7-2.9,5.9
					c0,0.8,0.1,1.8,0.4,2.9c0.3,1.1,0.8,2.1,1.4,3c0.7,0.9,1.7,1.7,2.9,2.3c1.3,0.6,2.9,0.8,4.8,0.8c0.5,0,0.6,0.6,0.1,1.8
					c-0.5,1.2-1,2.5-1.6,4c-0.6,1.5-1.2,2.8-1.6,3.9c-0.4,1.1-0.3,1.7,0.2,1.6c2.9-0.5,5.3-1.6,7.2-3.1c1.9-1.5,3.4-3.2,4.4-5.2
					c1-2,1.7-4,1.9-6.2c0.2-2.1,0.1-4-0.3-5.7C806.3,527.8,805.3,525.9,803.7,524.1z"/>
				<path class="st2" d="M531.6,521.5h-9.1h-9.7h-4.2h-4.2h-6.6c3.5,2,5.7,5,6.6,9.1v50c-0.9,4-3.1,7.1-6.6,9.1c3.5,2,5.7,5,6.6,9.1
					v49.9c-0.9,4.1-3.1,7.1-6.6,9.1h6.6h8.4h9.7h6.6c-3.5-1.9-5.7-5-6.6-9.1v-49.9h9.1c7.5,0,13.9-2.7,19.2-8c5.3-5.3,8-11.7,8-19.2
					c0-1.8,0-3.3,0-4.5c0-1.3,0-2.3,0-3.2c0-0.9,0-1.6,0-2.2c0-0.3,0-0.6,0-0.9c0,0,0,0,0-0.1c0,0,0-0.1,0-0.1c0-0.1,0-0.1,0-0.2
					c0-0.1,0-0.1,0-0.2c0,0,0-0.1,0-0.1c0-0.1,0-0.2,0-0.2c0,0,0-0.1,0-0.1c0,0,0-0.1,0-0.1c0-0.3,0-0.5,0-0.9c0-0.6,0-1.3,0-2.2
					c0-0.9,0-2,0-3.3c0-1.3,0-2.7,0-4.4c0-7.5-2.7-13.9-8-19.2C545.5,524.1,539.1,521.5,531.6,521.5z M540.6,553.1
					c0,1.3,0,2.4,0,3.3c0,0.9,0,1.6,0,2.2c0,0.4,0,0.6,0,0.9c0,0,0,0,0,0.1c0,0,0,0.1,0,0.1c0,0.1,0,0.1,0,0.2c0,0.1,0,0.1,0,0.2
					c0,0.1,0,0.1,0,0.2c0,0.1,0,0.1,0,0.2c0,0,0,0.1,0,0.1c0,0,0,0.1,0,0.1c0,0.3,0,0.5,0,0.9c0,0.6,0,1.3,0,2.2c0,0.9,0,2,0,3.3
					c0,1.3,0,2.8,0,4.5c0,2.5-0.9,4.6-2.6,6.4c-1.8,1.8-3.9,2.7-6.4,2.7h-9.1c0-13.7,0-27.3,0-41h9.1c2.5,0,4.7,0.9,6.4,2.6
					c1.8,1.8,2.6,3.9,2.6,6.4C540.6,550.3,540.6,551.8,540.6,553.1z"/>
				<path class="st2" d="M627.6,579.3V579V578v-0.4v-0.6v-0.9v-0.2v-0.8v-0.9c0-14.6,0-29.2,0-43.7c0.9-4.1,3.1-7.1,6.6-9.1h-6.6
					h-8.4h-9.7h-9.1c-0.3,0-0.5,0-0.8,0c-0.2,0-0.4,0-0.7,0.1c-0.3,0-0.5,0-0.7,0c-0.3,0-0.5,0-0.8,0.1c-0.2,0-0.4,0-0.7,0
					c-0.3,0.1-0.5,0.1-0.7,0.1c-0.3,0.1-0.5,0.1-0.7,0.2c-0.3,0-0.5,0-0.7,0.1c-0.3,0.1-0.5,0.1-0.7,0.2c-0.3,0-0.5,0-0.7,0.1
					c-0.3,0.1-0.5,0.1-0.7,0.2c-9.6,3.1-15.8,9.3-18.7,18.7c-0.1,0.3-0.1,0.5-0.2,0.7c-0.1,0.3-0.1,0.5-0.2,0.7
					c-0.1,0.3-0.1,0.5-0.1,0.7c-0.1,0.3-0.1,0.5-0.2,0.7c0,0.3,0,0.5-0.1,0.7c0,0.3,0,0.5-0.1,0.7c0,0.3,0,0.5-0.1,0.8
					c0,0.2,0,0.4,0,0.7c-0.1,0.3-0.1,0.5-0.1,0.7c0,0.3,0,0.5,0,0.8c0,0.2,0,0.4,0,0.7v31.9c-0.9,4-3.1,7.1-6.6,9.1
					c3.5,2,5.7,5,6.6,9.1v49.9c-0.9,4.1-3.1,7.1-6.6,9.1h6.6h18.1h6.6c-3.5-1.9-5.7-5-6.6-9.1v-49.9h18.1v49.9
					c-0.9,4.1-3.1,7.1-6.6,9.1h6.6h18.1h6.6c-3.5-1.9-5.7-5-6.6-9.1v-49.9c0.9-4.1,3.1-7.1,6.6-9.1c-3.5-2-5.7-5-6.6-9.1v-0.7V579.3
					z M609.5,548.6v31.9h-18.1v-31.9c0.1-2.6,1-4.7,2.7-6.5c1.7-1.7,3.9-2.6,6.4-2.6h9.1V548.6z"/>
				<path class="st2" d="M675.9,521.5h-9.1h-9.7h-4.2h-4.2h-6.6c3.5,2,5.7,5,6.6,9.1v50c-0.9,4-3.1,7.1-6.6,9.1c3.5,2,5.7,5,6.6,9.1
					v49.9c-0.9,4.1-3.1,7.1-6.6,9.1h6.6h8.4h9.7h6.6c-3.5-1.9-5.7-5-6.6-9.1v-49.9h9.1c7.5,0,13.9-2.7,19.2-8c5.3-5.3,8-11.7,8-19.2
					c0-1.8,0-3.3,0-4.5c0-1.3,0-2.3,0-3.2c0-0.9,0-1.6,0-2.2c0-0.3,0-0.6,0-0.9c0,0,0,0,0-0.1c0,0,0-0.1,0-0.1c0-0.1,0-0.1,0-0.2
					c0-0.1,0-0.1,0-0.2c0,0,0-0.1,0-0.1c0-0.1,0-0.2,0-0.2c0,0,0-0.1,0-0.1c0,0,0-0.1,0-0.1c0-0.3,0-0.5,0-0.9c0-0.6,0-1.3,0-2.2
					c0-0.9,0-2,0-3.3c0-1.3,0-2.7,0-4.4c0-7.5-2.7-13.9-8-19.2C689.8,524.1,683.4,521.5,675.9,521.5z M685,553.1c0,1.3,0,2.4,0,3.3
					c0,0.9,0,1.6,0,2.2c0,0.4,0,0.6,0,0.9c0,0,0,0,0,0.1c0,0,0,0.1,0,0.1c0,0.1,0,0.1,0,0.2c0,0.1,0,0.1,0,0.2c0,0.1,0,0.1,0,0.2
					c0,0.1,0,0.1,0,0.2c0,0,0,0.1,0,0.1c0,0,0,0.1,0,0.1c0,0.3,0,0.5,0,0.9c0,0.6,0,1.3,0,2.2c0,0.9,0,2,0,3.3c0,1.3,0,2.8,0,4.5
					c0,2.5-0.9,4.6-2.6,6.4c-1.8,1.8-3.9,2.7-6.4,2.7h-9.1c0-13.7,0-27.3,0-41h9.1c2.5,0,4.7,0.9,6.4,2.6c1.8,1.8,2.6,3.9,2.6,6.4
					C685,550.3,685,551.8,685,553.1z"/>
				<path class="st2" d="M772,579.3V579V578v-0.4v-0.6v-0.9v-0.2v-0.8v-0.9c0-14.6,0-29.2,0-43.7c0.9-4.1,3.1-7.1,6.6-9.1H772h-8.4
					h-9.7h-9.1c-0.3,0-0.5,0-0.8,0c-0.2,0-0.4,0-0.7,0.1c-0.3,0-0.5,0-0.7,0c-0.3,0-0.5,0-0.8,0.1c-0.2,0-0.4,0-0.7,0
					c-0.3,0.1-0.5,0.1-0.7,0.1c-0.3,0.1-0.5,0.1-0.7,0.2c-0.3,0-0.5,0-0.7,0.1c-0.3,0.1-0.5,0.1-0.7,0.2c-0.3,0-0.5,0-0.7,0.1
					c-0.3,0.1-0.5,0.1-0.7,0.2c-9.6,3.1-15.8,9.3-18.7,18.7c-0.1,0.3-0.1,0.5-0.2,0.7c-0.1,0.3-0.1,0.5-0.2,0.7
					c-0.1,0.3-0.1,0.5-0.1,0.7c-0.1,0.3-0.1,0.5-0.2,0.7c0,0.3,0,0.5-0.1,0.7c0,0.3,0,0.5-0.1,0.7c0,0.3,0,0.5-0.1,0.8
					c0,0.2,0,0.4,0,0.7c-0.1,0.3-0.1,0.5-0.1,0.7c0,0.3,0,0.5,0,0.8c0,0.2,0,0.4,0,0.7v31.9c-0.9,4-3.1,7.1-6.6,9.1
					c3.5,2,5.7,5,6.6,9.1v49.9c-0.9,4.1-3.1,7.1-6.6,9.1h6.6h18.1h6.6c-3.5-1.9-5.7-5-6.6-9.1v-49.9h18.1v49.9
					c-0.9,4.1-3.1,7.1-6.6,9.1h6.6H772h6.6c-3.5-1.9-5.7-5-6.6-9.1v-49.9c0.9-4.1,3.1-7.1,6.6-9.1c-3.5-2-5.7-5-6.6-9.1v-0.7V579.3z
					 M753.8,548.6v31.9h-18.1v-31.9c0.1-2.6,1-4.7,2.7-6.5c1.7-1.7,3.9-2.6,6.4-2.6h9.1V548.6z"/>
				<path class="st2" d="M876.9,580.6c-12.1,0-24.2,0-36.3,0v-1v-27.9v-3v-9.1h9.1c2.5,0,4.7,0.9,6.4,2.6c1.8,1.8,2.6,3.9,2.6,6.4
					v5.5v8.3v9.1h9.1h9.1v-8.9c0-0.1,0-0.1,0-0.2v-8.3v-5.5c0-7.5-2.7-13.9-8-19.2c-5.3-5.3-11.7-8-19.2-8h-27.2h-6.6
					c3.5,2,5.7,5,6.6,9.1v18.1v11.2v20.7c-0.9,4-3.1,7.1-6.6,9.1c3.5,2,5.7,5,6.6,9.1c12.1,0,24.2,0,36.3,0v0.9v27.9v3v9.1h-9.1
					c-2.5,0-4.7-0.9-6.4-2.6c-1.8-1.8-2.6-3.9-2.6-6.4c0-7.6,0-15.2,0-22.8h-9.1h-9.1c0,7.6,0,15.1,0,22.8c0,7.5,2.6,13.8,7.8,19.1
					c5.2,5.2,11.7,7.9,19.4,8.1h27.2v-27.1v-0.1v-31.8c0.9-4.1,3.1-7.1,6.6-9.1C880,587.6,877.8,584.6,876.9,580.6z"/>
				<path class="st2" d="M971.6,521.5h-9.1h-9.7h-4.2h-4.2h-6.6c3.5,2,5.7,5,6.6,9.1v50c-0.9,4-3.1,7.1-6.6,9.1c3.5,2,5.7,5,6.6,9.1
					v49.9c-0.9,4.1-3.1,7.1-6.6,9.1h6.6h8.4h9.7h6.6c-3.5-1.9-5.7-5-6.6-9.1v-49.9h9.1c7.5,0,13.9-2.7,19.2-8c5.3-5.3,8-11.7,8-19.2
					c0-1.8,0-3.3,0-4.5c0-1.3,0-2.3,0-3.2c0-0.9,0-1.6,0-2.2c0-0.3,0-0.6,0-0.9c0,0,0,0,0-0.1c0,0,0-0.1,0-0.1c0-0.1,0-0.1,0-0.2
					c0-0.1,0-0.1,0-0.2c0,0,0-0.1,0-0.1c0-0.1,0-0.2,0-0.2c0,0,0-0.1,0-0.1c0,0,0-0.1,0-0.1c0-0.3,0-0.5,0-0.9c0-0.6,0-1.3,0-2.2
					c0-0.9,0-2,0-3.3c0-1.3,0-2.7,0-4.4c0-7.5-2.7-13.9-8-19.2C985.5,524.1,979.1,521.5,971.6,521.5z M980.6,553.1
					c0,1.3,0,2.4,0,3.3c0,0.9,0,1.6,0,2.2c0,0.4,0,0.6,0,0.9c0,0,0,0,0,0.1c0,0,0,0.1,0,0.1c0,0.1,0,0.1,0,0.2c0,0.1,0,0.1,0,0.2
					c0,0.1,0,0.1,0,0.2c0,0.1,0,0.1,0,0.2c0,0,0,0.1,0,0.1c0,0,0,0.1,0,0.1c0,0.3,0,0.5,0,0.9c0,0.6,0,1.3,0,2.2c0,0.9,0,2,0,3.3
					c0,1.3,0,2.8,0,4.5c0,2.5-0.9,4.6-2.6,6.4c-1.8,1.8-3.9,2.7-6.4,2.7h-9.1c0-13.7,0-27.3,0-41h9.1c2.5,0,4.7,0.9,6.4,2.6
					c1.8,1.8,2.6,3.9,2.6,6.4C980.6,550.3,980.6,551.8,980.6,553.1z"/>
				<path class="st2" d="M1067.6,648.6v-40.9c0-7-2.3-13-7-18.1c4.7-5.2,7-11.2,7-18.1c0-1.8,0-3.3,0-4.5c0-1.3,0-2.3,0-3.2
					c0-0.9,0-1.6,0-2.2c0-0.3,0-0.6,0-0.9c0,0,0,0,0-0.1c0,0,0-0.1,0-0.1c0-0.1,0-0.1,0-0.2c0-0.1,0-0.1,0-0.2c0,0,0-0.1,0-0.1
					c0-0.1,0-0.2,0-0.2c0,0,0-0.1,0-0.1c0,0,0-0.1,0-0.1c0-0.3,0-0.5,0-0.9c0-0.6,0-1.3,0-2.2c0-0.9,0-2,0-3.3c0-1.3,0-2.7,0-4.4
					c0-7.5-2.7-13.9-8-19.2c-5.3-5.3-11.7-8-19.2-8h-9.1h-9.7h-4.2h-4.2h-6.6c3.5,2,5.7,5,6.6,9.1v50c-0.9,4-3.1,7.1-6.6,9.1
					c3.5,2,5.7,5,6.6,9.1v49.9c-0.9,4.1-3.1,7.1-6.6,9.1h6.6h18.1h2.3v-3.4c0.1,0.1,0.2,0.3,0.3,0.5c0.8,1.1,1.7,2,2.7,2.8v0.1h1.3
					c-3.5-1.9-5.7-5-6.6-9.1v-49.9h9.1c2.6,0.1,4.7,1,6.5,2.7c1.7,1.7,2.6,3.9,2.6,6.4v40.9c-0.9,4.1-3.1,7.1-6.6,9.1h6.6h18.1h6.6
					C1070.7,655.7,1068.5,652.7,1067.6,648.6z M1049.5,553.1c0,1.3,0,2.4,0,3.3c0,0.9,0,1.6,0,2.2c0,0.4,0,0.6,0,0.9c0,0,0,0,0,0.1
					c0,0,0,0.1,0,0.1c0,0.1,0,0.1,0,0.2c0,0.1,0,0.1,0,0.2c0,0.1,0,0.1,0,0.2c0,0.1,0,0.1,0,0.2c0,0,0,0.1,0,0.1c0,0,0,0.1,0,0.1
					c0,0.3,0,0.5,0,0.9c0,0.6,0,1.3,0,2.2c0,0.9,0,2,0,3.3c0,1.3,0,2.8,0,4.5c0,2.5-0.9,4.6-2.6,6.3c-1.7,1.8-3.9,2.7-6.5,2.7h-9.1
					c0-13.7,0-27.3,0-41h9.1c2.5,0,4.7,0.9,6.4,2.6c1.8,1.8,2.6,3.9,2.6,6.4C1049.5,550.3,1049.5,551.8,1049.5,553.1z"/>
				<path class="st2" d="M1083.8,521.5h-6.6c3.5,2,5.7,5,6.6,9.1v50c-0.9,4-3.1,7.1-6.6,9.1c3.5,2,5.7,5,6.6,9.1v49.9
					c-0.9,4.1-3.1,7.1-6.6,9.1h6.6h18.1h36.3v-18.1H1102v-40.9h18.1v-18.1H1102v-41h36.3v-18.1H1102H1083.8z"/>
				<path class="st2" d="M1186.6,521.5h-18.1h-18.1h-6.6c3.5,2,5.7,5,6.6,9.1v9.1h18.1v41c-0.9,4-3.1,7.1-6.6,9.1
					c3.5,2,5.7,5,6.6,9.1v49.9c-0.9,4.1-3.1,7.1-6.6,9.1h6.6h18.1h6.6c-3.5-1.9-5.7-5-6.6-9.1v-49.9c0.9-4.1,3.1-7.1,6.6-9.1
					c-3.5-2-5.7-5-6.6-9.1v-41h18.1v-9.1c0.9-4.1,3.1-7.1,6.6-9.1h-6.6H1186.6z"/>
				<path class="st2" d="M1272.5,521.5h-46.6h-6.6c3.5,2,5.7,5,6.6,9.1v9.1h39.5l-18.6,47.2l0.2-0.5l3.3-8.4
					c-2.3,3.5-5.5,5.4-9.4,5.9c2.5,3.1,3.5,6.7,2.8,10.8l-17.8,45v9.1c-0.9,4.1-3.1,7.1-6.6,9.1h6.6h0.7h11.6h46.6v-18.1h-39.5
					l15.1-38.1c2.3-3.5,5.5-5.5,9.4-6c-2.5-3.1-3.5-6.6-2.8-10.7l17.8-45.1v-18.1h-2H1272.5z"/>
				<path class="st2" d="M1301.4,521.5h-6.6c3.5,2,5.7,5,6.6,9.1v50c-0.9,4-3.1,7.1-6.6,9.1c3.5,2,5.7,5,6.6,9.1v49.9
					c-0.9,4.1-3.1,7.1-6.6,9.1h6.6h18.1h36.3v-18.1h-36.3v-40.9h18.1v-18.1h-18.1v-41h36.3v-18.1h-36.3H1301.4z"/>
				<path class="st2" d="M1386,639.6v-40.9c0.9-4.1,3.1-7.1,6.6-9.1c-3.5-2-5.7-5-6.6-9.1v-50c0.9-4.1,3.1-7.1,6.6-9.1h-6.6h-18.1
					h-6.6c3.5,2,5.7,5,6.6,9.1v50c-0.9,4-3.1,7.1-6.6,9.1c3.5,2,5.7,5,6.6,9.1v40.9v9.1c-0.9,4.1-3.1,7.1-6.6,9.1h6.6h18.1h36.3
					v-18.1H1386z"/>
			</g>
		</g>
		<g>
			<path class="st3" d="M527.8,653.4v-52.1h-2.5v46.9C525.8,650.2,526.6,651.9,527.8,653.4z"/>
			<path class="st3" d="M525.3,577.8h2.5v-35.5h-2.5C525.3,554.2,525.3,566,525.3,577.8z"/>
			<path class="st3" d="M594.1,548.6v29.2h2.5v-34.3C594.9,544.9,594.1,546.6,594.1,548.6z"/>
			<path class="st3" d="M596.6,653.4v-52.1h-2.5v46.9C594.6,650.2,595.4,651.9,596.6,653.4z"/>
			<path class="st3" d="M672.2,653.4v-52.1h-2.5v46.9C670.1,650.2,671,651.9,672.2,653.4z"/>
			<path class="st3" d="M669.6,577.8h2.5v-35.5h-2.5C669.6,554.2,669.6,566,669.6,577.8z"/>
			<path class="st3" d="M738.4,548.6v29.2h2.5v-34.3C739.3,544.9,738.4,546.6,738.4,548.6z"/>
			<path class="st3" d="M741,653.4v-52.1h-2.5v46.9C738.9,650.2,739.8,651.9,741,653.4z"/>
			<rect x="843.4" y="542.3" class="st3" width="2.5" height="35.5"/>
			<path class="st3" d="M845.9,607.7h-2.5c0,7.6,0,15.1,0,22.8c0,2.1,0.8,3.8,2.5,5.1V607.7z"/>
			<path class="st3" d="M965.3,577.8h2.5v-35.5h-2.5C965.3,554.2,965.3,566,965.3,577.8z"/>
			<path class="st3" d="M967.8,653.4v-52.1h-2.5v46.9C965.8,650.2,966.6,651.9,967.8,653.4z"/>
			<path class="st3" d="M1035.8,653.4c0.3,0.4,0.5,0.8,0.8,1.1v-53.8h-3v47.9C1034.2,650.5,1034.9,652.1,1035.8,653.4z"/>
			<rect x="1033.6" y="541.8" class="st3" width="3" height="36.6"/>
			<rect x="1104.2" y="600.8" class="st3" width="3" height="36.6"/>
			<rect x="1104.2" y="541.8" class="st3" width="3" height="36.6"/>
			<path class="st3" d="M1189.3,648.3c0.5,2,1.4,3.7,2.5,5.2v-59.6c-1.2,1.5-2,3.2-2.5,5.2V648.3z"/>
			<path class="st3" d="M1191.8,585.3v-43h-2.5v37.8C1189.8,582.1,1190.6,583.8,1191.8,585.3z"/>
			<path class="st3" d="M1248.6,637.4h3.2l15.6-39.2c-1.9,0.9-3.5,2.2-4.8,4L1248.6,637.4z"/>
			<path class="st3" d="M1287.4,539.3l-18.3,46.2c-0.2,2.2,0.1,4.3,0.9,6.2l20.3-51.6l0.2-0.6v-18.1h-3V539.3z"/>
			<rect x="1321.8" y="541.8" class="st3" width="3" height="36.6"/>
			<rect x="1321.8" y="600.8" class="st3" width="3" height="36.6"/>
			<path class="st3" d="M1388.2,637.4h3V593c-1.4,1.5-2.4,3.3-3,5.4V637.4z"/>
			<path class="st3" d="M1388.2,580.7c0.6,2.1,1.6,3.9,3,5.4v-61.2c-1.4,1.4-2.4,3.2-3,5.3V580.7z"/>
		</g>
	</g>
	<g>
		<g>
			<path class="st3" d="M849.1,796.8c-4.9,9.3-13.6,11.9-22.5,7.2l-6-3.2l-5.8,10.9c-1.1,2.1-0.6,4,2,5.4l-2.6,4.9
				c0,0-2.9-1.5-7.1-3.7c-1.7-0.9-2.4-2.4-2.2-4c-1.2,1-2.9,1.2-4.6,0.4c-4.2-2.2-7.1-3.7-7.1-3.7l2.6-4.9c2.6,1.4,4.5,0.8,5.6-1.3
				l17.2-32.6c1.1-2,0.6-4-2-5.4l2.6-4.8l23.2,12.2C851.3,778.9,854,787.4,849.1,796.8z M817.5,792.4l7.9-16.7l-9.4,15.9l-7.8,16.6
				L817.5,792.4z M836.5,790.2c3.4-6.4,1.9-10.9-2.9-14.1l-10.4,19.6C828.6,797.9,833.2,796.5,836.5,790.2z M844.2,794.2
				c2.3-4.4,2.2-9.6-0.3-13.7c1.6,5,1.2,8.6-1.1,12.9s-5,6.7-10,8.2C837.5,801.4,841.9,798.6,844.2,794.2z"/>
			<path class="st3" d="M904.6,836.1l-4.2,16.4l-39.1-10l1.4-5.4c2.9,0.7,4.5-0.3,5.1-2.5l9.2-35.7c0.6-2.2-0.4-3.9-3.3-4.7l1.4-5.4
				l22.9,5.9l-1.4,5.4c-2.9-0.7-4.5,0.3-5.1,2.5l-10.1,39.4l9.8,2.5c5.3,1.4,9.1-4.1,10.4-9.1L904.6,836.1z M880.5,818.7l3.8-18.1
				l-5.4,17.7l-3.7,18.1L880.5,818.7z"/>
			<path class="st3" d="M988.8,851.4l0.1,5.5l-23.7,0.4l-0.1-5.5c2.7,0,3.9-1.5,3-3.8c-0.2-0.5-1.5-4.3-3.3-9.5l-18.3,0.3
				c-0.8,2.6-1.5,4.6-1.9,5.6c-1.9,5.5,2,7.8,7.7,7.7l0.1,5.5l-21.4,0.3l-0.1-5.5c3,0,5.2-1.9,7.4-5.5c2.1-3.5,11.1-31.9,11.9-34.4
				c0.9-3-0.1-4.8-4-4.7l-0.1-5.5l20.8-0.3c0,0,14.6,40.9,15.9,44.6C984.3,850.4,986.2,851.4,988.8,851.4z M962.8,832.7
				c-2.7-7.6-5.8-16.1-7.4-20.6c-2.1,6.2-4.7,14.3-6.9,20.9L962.8,832.7z M976.7,847.8l-6.1-18.7l-7.6-18l6.1,18.7L976.7,847.8z"/>
			<path class="st3" d="M1048.4,790.2l3.8,14.9l-2.9,0.8c-2.1-8.2-7.5-11.9-15.6-9.8c-9.6,2.5-11.3,13.8-8.1,26.3
				c3.3,12.6,10.2,21.6,19.8,19.1c8-2.1,11-7.8,8.9-16l2.9-0.8l3.8,14.9c-5.8,4-10.4,6.1-14.3,7.1c-20.1,5.2-33-6.1-36.7-20.3
				c-3.7-14.1,2.1-30.3,22.3-35.5C1036.3,789.8,1041.4,789.6,1048.4,790.2z M1018.4,824.2c-2.4-9.1-0.8-14.8,1.6-21.6
				c-3.2,5.1-5.6,13.1-3.3,22c2.3,8.9,8.4,14.8,13.6,17.6C1024.9,837.5,1020.7,833.2,1018.4,824.2z"/>
			<path class="st3" d="M1086,776.1l9.4,17.6c0.6-0.4,1.3-0.9,2.1-1.4c4.3-3.2,2.8-8.5,1-11.9l2.7-1.4l11.8,22l-2.7,1.4
				c-1.9-3.5-5.5-7.7-10.5-5.8c-0.9,0.4-1.7,0.6-2.3,1l9.4,17.6l8.2-4.4c4.9-2.6,4-9.2,1.5-13.8l2.7-1.4l8,14.9l-34.9,18.7l-2.6-4.9
				c2.6-1.4,3.1-3.3,2-5.3l-17.5-32.5c-1.1-2-3-2.6-5.6-1.2l-2.6-4.9l34.9-18.7l8,14.9l-2.7,1.4c-2.4-4.5-7.4-9-12.3-6.3L1086,776.1
				z M1090.5,798.8l-9.5-15.9l8,16.7l9.5,15.9L1090.5,798.8z"/>
		</g>
	</g>
	<g>
		<g>
			<g>
				<rect x="635" y="481.8" class="st4" width="651.4" height="4.1"/>
			</g>
			<g>
				<path class="st4" d="M1255.4,735.6c-1.3-2.8-2.9-5.8-4.8-9.3c-61.5,95.6-168.8,159-290.6,159c-113.6,0-214.6-55.2-277.6-140.1
					c-5.2,5.3-12,8.5-19.2,9.2c11.4,15.7,24,30.5,37.9,44.4c33.6,33.6,72.8,60,116.3,78.4C862.7,896.4,910.6,906,960,906
					c49.4,0,97.3-9.7,142.5-28.8c43.6-18.4,82.7-44.8,116.3-78.4c16.4-16.4,31.1-34.1,43.9-53C1259.8,743,1257.3,739.6,1255.4,735.6
					z"/>
				<path class="st4" d="M960,878.5c90.4,0,175.4-35.2,239.4-99.2c18.2-18.2,34-38.1,47.4-59.4c-2.3-3.5-4.6-6.6-6.8-9.1
					c-57.7,94.3-161.7,157.3-280,157.3c-110.4,0-208.3-54.8-267.8-138.7c-1.2,2.2-2.2,4.2-3.1,6.1c-0.7,1.5-1.5,2.9-2.4,4.3
					c10.2,13.9,21.5,27.1,33.9,39.5C784.6,843.3,869.6,878.5,960,878.5z"/>
				<path class="st4" d="M1309.4,430.7c-3.5-11.2-7.6-22.3-12.2-33.2c-18.4-43.6-44.8-82.7-78.4-116.3
					c-33.6-33.6-72.8-60-116.3-78.4c-45.1-19.1-93.1-28.8-142.5-28.8c-49.4,0-97.3,9.7-142.5,28.8c-43.6,18.4-82.7,44.8-116.3,78.4
					c-33.6,33.6-60,72.8-78.4,116.3c-4.6,10.9-8.7,22-12.2,33.2c7.5,2.7,13.3,8.3,16.9,16.2C668.2,301.6,801.8,194.6,960,194.6
					c158.2,0,291.8,106.9,332.6,252.3C1296.1,438.9,1301.9,433.3,1309.4,430.7z"/>
				<g>
					<path class="st4" d="M554.3,694.3h2.1h150.8c-0.1,0-0.2,0.1-0.3,0.1h530.7c-0.1,0-0.2-0.1-0.3-0.1h150.8h2.1h8.2l-8,1.8
						c0,0,0,0,0,0c-11,2.2-21.4,6.7-33.4,5.2c-17.3-2-35.3-4.2-44.6,15.9c-0.9,2.3-1.3,4.9-1.4,6.6c0,0,0,0,0,0l0,0
						c-0.1-3.8-1.2-6.4-1.2-6.4l0,0c-0.7-1.8-1.4-3.7-2.3-5.5c-5-9.4-19-13.8-30.6-9.8c-7.6,2.6-11.7,12-9.9,22.2
						c1.3,7.4,6.8,12.5,13.9,13c7.1,0.5,14.3-3.2,15.5-9.6c0.7-3.5-0.6-8-2.4-11.3c-1.8-3.2-5.5-3.9-8-2.3c0,0-3.2,1.3-4.1,4
						c0,0-1.2,3,2,4.5c0,0,2.3,0.8,4.2-0.4c1.1-0.7,2.6-0.2,3.2,1.1c0.2,0.4,0.3,0.7,0.4,1.1c0.2,0.7-4,4.1-6,4
						c-2.8-0.2-6.5-1.9-8-4.2c-3-4.5-2.1-9.7,1.8-13.6c4.1-4.2,9.5-4.6,14.7-1.7c5,2.8,8.3,8.2,8.8,13.9c0.9,10-4.8,18.2-14.1,20.6
						c-10,2.6-19.7-2.7-24.3-12.3c-1.7-3.6-3.6-7.2-5.5-10.7c-3.6-6.3-9.1-14.8-15.4-20.5c-0.3-0.2-0.5-0.5-0.8-0.7c0,0,0,0,0,0
						c-0.1-0.1-0.3-0.2-0.5-0.4H702c-0.2,0.1-0.3,0.2-0.5,0.4c0,0,0,0,0,0c-0.3,0.3-0.6,0.5-0.8,0.7c-6.2,5.6-11.8,14.2-15.4,20.5
						c-1.9,3.5-3.8,7.1-5.5,10.7c-4.5,9.6-14.2,15-24.3,12.3c-9.2-2.4-14.9-10.6-14.1-20.6c0.5-5.7,3.7-11.1,8.8-13.9
						c5.2-2.9,10.5-2.5,14.7,1.7c3.9,3.9,4.8,9.1,1.8,13.6c-1.5,2.3-5.2,4-8,4.2c-2,0.1-6.3-3.3-6-4c0.1-0.4,0.3-0.8,0.4-1.1
						c0.5-1.2,2-1.8,3.2-1.1c1.9,1.2,4.2,0.4,4.2,0.4c3.3-1.5,2-4.5,2-4.5c-0.8-2.7-4.1-4-4.1-4c-2.4-1.5-6.2-0.9-8,2.3
						c-1.8,3.3-3.1,7.8-2.4,11.3c1.3,6.3,8.4,10.1,15.5,9.6c7.1-0.5,12.6-5.7,13.9-13c1.8-10.2-2.3-19.5-9.9-22.2
						c-11.6-4-25.5,0.4-30.6,9.8c-0.9,1.8-1.6,3.6-2.3,5.5l0,0c0,0-1.2,2.6-1.2,6.4l0,0c0,0,0,0,0,0c-0.1-1.7-0.5-4.3-1.4-6.6
						c-9.3-20.1-27.4-18-44.6-15.9c-12,1.4-22.3-3.1-33.4-5.2c0,0,0,0,0,0l-8-1.8H554.3z"/>
				</g>
				<path class="st4" d="M1423.2,485.9c-13.8-4.7-28.1-5.1-42.3-3.2c-14.8,2-25.1-3.5-31.7-16.6c-0.3-0.5-1.2-0.7-1.9-1.1
					c-7.4,14.4-16.4,19.5-30.3,17.1c-8.5-1.5-12.1-5.8-13.4-16.3c-1.1-9,2.5-16.3,9.4-19.3c7.6-3.2,18.3,1.2,20.1,9.1
					c0.7,3.3-0.4,7.6-2.1,10.6c-1.7,3.1-5.4,4.3-8.2,2.6c2.4-3.6,5.4-6.3,5.7-9.3c0.2-1.5-4.3-4.6-7.1-5.1c-4.9-0.9-7.6,2.8-8.5,7.1
					c-0.5,2.3-0.1,5,0.8,7.2c3.6,8.6,14.5,9.7,21,2.1c5.7-6.6,6-14,2.6-21.6c-3.3-7.5-9.8-10.1-17.5-10.1c-9,0-15.2,4.6-18.4,12.8
					c-2.8,7-5.9,13.8-10,19.7c-13.1-64.4-44.7-123.6-92.3-171.1c-63.9-63.9-148.9-99.2-239.4-99.2s-175.4,35.2-239.4,99.2
					c-47.5,47.5-79.1,106.7-92.3,171.1c-4.1-5.9-7.2-12.7-10-19.7c-3.2-8.1-9.5-12.8-18.4-12.8c-7.6,0-14.2,2.6-17.5,10.1
					c-3.4,7.6-3.1,15,2.6,21.6c6.5,7.6,17.4,6.5,21-2.1c0.9-2.1,1.3-4.9,0.8-7.2c-0.9-4.4-3.6-8-8.5-7.1c-2.7,0.5-7.2,3.6-7.1,5.1
					c0.3,3,3.3,5.7,5.7,9.3c-2.8,1.6-6.4,0.5-8.2-2.6c-1.7-3.1-2.9-7.4-2.1-10.6c1.8-7.9,12.5-12.3,20.1-9.1
					c6.9,2.9,10.5,10.3,9.4,19.3c-1.3,10.5-4.8,14.8-13.4,16.3c-13.9,2.4-22.9-2.7-30.3-17.1c-0.7,0.3-1.6,0.5-1.9,1.1
					c-6.6,13.1-16.9,18.6-31.7,16.6c-14.2-1.9-28.5-1.5-42.3,3.2c-0.9,0.3-1.9,0.6-2.7,1.4h932
					C1425.1,486.5,1424.2,486.2,1423.2,485.9z M1279,484.4c-72.2,0-186.6,0-254.3,0.1c0,0-0.1,0-0.1,0
					c-76.4-0.1-158.6-0.1-166.8-0.1c-58,0-153.2,0-211.2,0c-1.8,0-3.7,0-5.6,0c-1.4-0.9-2.7-1.9-3.9-2.9c1.6-7.3,3.1-14.2,4.6-21.1
					c0,0-0.1,0-0.1,0C677.4,317.7,806.5,211.8,960,211.8c161,0,295.2,116.5,322.9,269.6C1281.7,482.4,1280.3,483.4,1279,484.4z"/>
				<g>
					<path class="st4" d="M1149.7,696c-45.1,54.8-113.4,89.8-189.7,89.8s-144.6-35-189.7-89.8h-10.8c6.4,8.2,13.4,16.1,20.9,23.6
						c48,48,111.8,74.4,179.6,74.4c67.9,0,131.6-26.4,179.6-74.4c7.5-7.5,14.5-15.4,20.9-23.6H1149.7z"/>
				</g>
			</g>
		</g>
	</g>
	<g>
		<g>
			<path class="st4" d="M773.3,396.6c-0.3,0.1-0.6,0.2-0.9,0.4c-6.1,3.4-0.4,14,1.5,18.4c2.7,6.3,5.4,12.5,8.9,18.4
				c0.3,0.5,0.7,1.1,1.3,0.9c0.8-0.2,0.6-1.3,0.3-2.1c-4.3-10.4-0.7-22.9-5.4-33c-0.4-0.8-0.8-1.6-1.4-2.2
				C776.4,396.5,774.8,396.2,773.3,396.6z M775.4,400c1,0.7,1.8,1.8,2.2,3c0.4,1.4,0.5,2.8,0.6,4.3c0.2,4.6,0.4,9.2,0.5,13.8
				c-1.6-3.4-3-7-3.9-10.6c-0.8-3.2-2.2-7.1-0.8-10.3c0.1-0.2,0.2-0.5,0.5-0.5c0.1,0,0.3,0,0.4,0.1
				C775.1,399.9,775.2,399.9,775.4,400z"/>
			<path class="st4" d="M810.8,399.2c-2.8,0.3-5.5,1.3-7.9,2.9c-7.6,5.2-10.5,15.2-10.2,24.4c0.2,7.6,2.2,15.3,6.7,21.3
				c-9.5,8.1-19.7,16.6-32.1,18.5c-4.1,0.6-8.5,0.5-12.3-1.1c-5.2-2.1-9-6.6-11.9-11.4c-2.7-4.5-4.9-9.5-4.7-14.7s3.1-10.6,8-12.4
				c4.9-1.8,11.4,1.3,12,6.5c0.2,1.5-0.1,3.1-1.1,4.2c-1.6,1.8-4.7,2.1-5.6,4.3c-0.5,1.4,0.1,3,1.2,3.9c1.1,0.9,2.7,1.2,4.1,1
				c4.4-0.4,7.9-4.7,8.2-9.1s-2.2-8.7-5.7-11.4c-4.9-3.7-11.8-4.5-17.4-2.1c-14.6,6.5-11.6,25.3-2.9,35.3c5,5.8,12.2,9.5,19.8,10.4
				c7.7,0.9,15.5-1.2,22.4-4.7c6.9-3.6,12.9-8.6,18.5-13.9c0.4-0.3,0.7-0.7,1.2-0.8c0.7-0.1,1.4,0.4,2,0.9c2.9,2.5,5.9,5,9.6,6
				c2.5,0.7,5.7,0.3,6.8-2c0.7-1.6,0.2-3.4-0.7-4.9c-2.8-4.6-9.2-6.6-14.2-4.5c-0.5,0.2-1.1,0.5-1.7,0.3c-0.4-0.1-0.7-0.5-1-0.9
				c-6.9-9.1-8.2-22-3.2-32.3c1.7-3.6,4.3-7,7.6-9.1c3.4-2.2,7.7-3,11.5-1.8s6.9,4.8,7.1,8.8c0.1,2.7-1,5.4-2.7,7.5
				c-1.1,1.5-2.5,2.7-3.5,4.3s-1.2,3.8-0.2,5.3c1,1.4,3.1,1.9,4.8,1.4c1.7-0.5,3.1-1.7,4.2-3.1c5.1-6.5,4.2-16.8-1.7-22.6
				C821.9,400.2,816.2,398.6,810.8,399.2z M735.6,442.4c0.8,5.4,2.9,9.9,7.1,15.5c2.2,2.9,2.3,3,1.4,2.3c-0.4-0.3-1.2-1.2-1.8-1.9
				c-0.6-0.7-1.6-1.9-2.3-2.6c-2.2-2.4-4.3-6.8-4.7-9.9c-0.1-0.6-0.2-1.4-0.3-1.7c-0.2-0.8-0.2-3.9,0.1-4.6c0.1-0.4,0.2-0.3,0.3,0.6
				C735.3,440.7,735.5,441.7,735.6,442.4L735.6,442.4z M811.1,448.1c1.1,0.4,2,1,2.7,1.7c0.4,0.5,0.8,1,1,1.6s0,1.3-0.5,1.8
				c-0.7,0.6-1.7,0.5-2.5,0.2c-1.6-0.4-3.1-1.2-4.4-2.1c-1.4-1-3.3-1.9-1.5-3C807.3,447.3,809.4,447.4,811.1,448.1z M817.7,454.4
				c-0.4,1.2-0.9,1.5-2,1.4l-0.6-0.1l0.8-0.5c0.4-0.3,1.1-1,1.5-1.5C818.1,452.6,818.3,452.9,817.7,454.4L817.7,454.4z"/>
		</g>
		<g>
			<path class="st4" d="M1144.3,397.5c-0.6,0.6-1.1,1.4-1.4,2.2c-4.8,10.2-1.1,22.7-5.4,33c-0.3,0.7-0.5,1.9,0.3,2.1
				c0.6,0.1,1-0.4,1.3-0.9c3.4-5.9,6.2-12.2,8.9-18.4c1.9-4.4,7.5-15,1.5-18.4c-0.3-0.2-0.6-0.3-0.9-0.4
				C1147,396.2,1145.4,396.5,1144.3,397.5z M1146.8,399.8c0.1-0.1,0.3-0.1,0.4-0.1c0.2,0,0.4,0.3,0.5,0.5c1.4,3.2,0.1,7.1-0.8,10.3
				c-1,3.6-2.3,7.2-3.9,10.6c0.2-4.6,0.4-9.2,0.5-13.8c0.1-1.4,0.1-2.9,0.6-4.3c0.4-1.2,1.1-2.3,2.2-3
				C1146.5,399.9,1146.7,399.9,1146.8,399.8z"/>
			<path class="st4" d="M1095.9,403.9c-5.9,5.7-6.8,16-1.7,22.6c1.1,1.4,2.5,2.6,4.2,3.1c1.7,0.5,3.7,0,4.8-1.4
				c1.1-1.5,0.7-3.7-0.2-5.3s-2.3-2.9-3.5-4.3c-1.7-2.1-2.8-4.8-2.7-7.5c0.2-4,3.3-7.6,7.1-8.8c3.8-1.2,8.1-0.4,11.5,1.8
				c3.4,2.2,5.9,5.5,7.6,9.1c4.9,10.2,3.6,23.2-3.2,32.3c-0.3,0.4-0.6,0.7-1,0.9c-0.6,0.2-1.1-0.1-1.7-0.3c-5-2.2-11.4-0.2-14.2,4.5
				c-0.9,1.5-1.4,3.3-0.7,4.9c1.1,2.3,4.3,2.7,6.8,2c3.7-1,6.8-3.5,9.6-6c0.6-0.5,1.2-1,2-0.9c0.5,0.1,0.9,0.4,1.2,0.8
				c5.6,5.3,11.6,10.3,18.5,13.9c6.9,3.6,14.7,5.6,22.4,4.7c7.6-0.9,14.8-4.7,19.8-10.4c8.7-10,11.7-28.8-2.9-35.3
				c-5.6-2.5-12.5-1.7-17.4,2.1c-3.5,2.7-6,7-5.7,11.4s3.8,8.6,8.2,9.1c1.4,0.1,3-0.1,4.1-1c1.1-0.9,1.7-2.5,1.2-3.9
				c-0.9-2.2-4-2.5-5.6-4.3c-1-1.1-1.3-2.7-1.1-4.2c0.7-5.2,7.1-8.3,12-6.5c4.9,1.8,7.9,7.2,8,12.4s-2,10.3-4.7,14.7
				c-2.9,4.8-6.8,9.3-11.9,11.4c-3.9,1.6-8.2,1.7-12.3,1.1c-12.4-1.9-22.6-10.4-32.1-18.5c4.5-6.1,6.5-13.8,6.7-21.3
				c0.2-9.2-2.6-19.3-10.2-24.4c-2.3-1.6-5.1-2.5-7.9-2.9C1105.5,398.6,1099.8,400.2,1095.9,403.9z M1186.2,442.4
				c0.1-0.7,0.2-1.7,0.3-2.3c0.1-0.9,0.1-1,0.3-0.6c0.2,0.6,0.3,3.8,0.1,4.6c-0.1,0.4-0.2,1.1-0.3,1.7c-0.5,3.1-2.5,7.4-4.8,9.9
				c-0.7,0.7-1.7,1.9-2.3,2.6c-0.6,0.7-1.4,1.6-1.8,1.9c-0.9,0.7-0.8,0.6,1.4-2.3C1183.3,452.3,1185.4,447.8,1186.2,442.4
				L1186.2,442.4z M1115.9,448.2c1.7,1.2-0.1,2.1-1.5,3c-1.4,0.9-2.9,1.6-4.4,2.1c-0.8,0.2-1.9,0.4-2.5-0.2
				c-0.5-0.4-0.6-1.1-0.5-1.8s0.5-1.2,1-1.6c0.6-0.7,1.6-1.3,2.7-1.7C1112.4,447.4,1114.5,447.3,1115.9,448.2z M1104,454.4
				c-0.6-1.6-0.4-1.9,0.4-0.7c0.4,0.5,1,1.2,1.5,1.5l0.8,0.5l-0.6,0.1C1105,456,1104.5,455.6,1104,454.4L1104,454.4z"/>
		</g>
	</g>
	<g>
		<g>
			<path class="st4" d="M960,274.3c127.4,0,234.1,90.1,259.8,210c1-0.2,2.1-0.3,3.1-0.3c1.9,0,3.7,0.3,5.5,0.7
				c-10.6-52.1-36.2-100-74.7-138.5C1102,294.5,1033.2,266,960,266s-142,28.5-193.8,80.3c-38.3,38.3-63.8,85.9-74.5,137.7
				c2.9,0,5.7,0.6,8.1,1.7C725,365.1,832.1,274.3,960,274.3z"/>
		</g>
	</g>
	<g>
		<path class="st3" d="M661.3,448l3.4,0.1l1.8,0l-0.3,1c-0.5,0-1,0.2-1.4,0.5c-0.4,0.3-0.7,0.8-0.9,1.3l-1.3,4.4l7.5,2.2l0.9-3.1
			c0.2-0.8,0.1-1.6-0.4-2.4l0.3-1c0.9,0.5,1.8,1.1,2.7,1.6c0.9,0.5,1.8,1.1,2.7,1.6l-0.2,0.5c-0.5,0-0.9,0.2-1.3,0.4
			c-0.4,0.2-0.7,0.6-0.9,1l-0.6,2.2l7.9,2.3c0.5,0.2,1,0.1,1.6-0.1c0.5-0.2,0.9-0.5,1.2-0.9l0.6,0.2l-2.7,9.4l-0.6-0.2
			c0-0.5-0.2-1-0.6-1.4c-0.3-0.4-0.8-0.7-1.3-0.9l-18.8-5.4c-0.5-0.2-1-0.1-1.6,0.1c-0.5,0.2-0.9,0.5-1.2,0.9l-0.6-0.2L661.3,448z"
			/>
		<path class="st3" d="M667.5,430l0.1-0.3c0.6-1.4,1.2-2.5,2-3.4c0.7-0.9,1.5-1.5,2.3-1.8c0.8-0.3,1.7-0.5,2.6-0.4
			c0.9,0.1,1.7,0.3,2.6,0.8c1.3,0.7,2.2,1.5,2.9,2.6c0.6,1.1,1.1,2.2,1.3,3.5l8.1-1.2l3.9-0.5c0.3-0.1,0.6-0.2,0.9-0.3
			c0.3-0.1,0.5-0.3,0.6-0.5l0.6,0.2l-1.5,3.9c-0.4,1.1-1,1.9-1.8,2.4c-0.8,0.5-1.7,0.8-2.8,1l-8.1,0.9c-0.1,0.5-0.2,1-0.3,1.5
			c-0.1,0.5-0.2,1-0.3,1.5l6.4,2.4c0.5,0.2,1,0.2,1.5,0.1c0.5-0.2,0.9-0.4,1.3-0.8l0.6,0.2l-3.5,9.2l-0.6-0.2c0-0.5-0.1-1-0.4-1.5
			c-0.3-0.4-0.7-0.8-1.2-0.9l-18.3-6.9c-0.5-0.2-1-0.2-1.5-0.1c-0.5,0.1-0.9,0.4-1.3,0.8L663,442L667.5,430z M677.5,438.8
			c0.5-1.5,0.7-2.7,0.6-3.9c-0.1-1.1-0.4-2.1-0.9-2.9s-1.1-1.4-1.8-1.8c-0.7-0.4-1.5-0.7-2.2-0.8c-0.7-0.1-1.4,0-2,0.2
			c-0.6,0.2-1.1,0.6-1.3,1.2l-1.7,4.5L677.5,438.8z"/>
		<path class="st3" d="M699,412c-0.1-0.5-0.3-1-0.7-1.3l0.5-1l3.9,3.3l-6.5,13.7l-0.6-0.3c0-0.5-0.1-1-0.3-1.5
			c-0.3-0.5-0.7-0.8-1.2-1.1l-17.6-8.3c-0.5-0.2-1.1-0.3-1.6-0.2c-0.5,0.1-1,0.3-1.3,0.7l-0.6-0.3l6.3-13.5l3.3,0.6l1.7,0.3l-0.5,1
			c-0.5,0-1,0.1-1.5,0.3c-0.5,0.2-0.8,0.6-1.1,1.2l-2,4.2l7,3.3l1.4-3c0.4-0.8,0.4-1.6,0-2.5l0.5-1l4.7,4.1l-0.2,0.5
			c-0.5,0-1,0-1.4,0.2c-0.4,0.2-0.8,0.5-1,0.9l-1,2l7.2,3.4l2.1-4.4C699.1,413,699.1,412.5,699,412z"/>
		<path class="st3" d="M705.4,407.6l-0.4,0.8l-8.5-4.8l0.6-1c1,0.2,2,0.3,3.1,0.3c1.1,0,2.1-0.1,3.1-0.5c0.6-0.2,1.2-0.5,1.8-0.9
			c0.6-0.4,1.1-0.9,1.6-1.4c0.4-0.6,0.8-1.1,1-1.8c0.2-0.6,0.3-1.3,0.2-2c-0.2-0.8-0.6-1.4-1.3-1.9c-0.7-0.5-1.4-0.6-2.2-0.5
			c-0.7,0.2-1.5,0.6-2.2,1.1s-1.5,1.2-2.4,1.9c-0.8,0.7-1.7,1.4-2.5,2c-0.9,0.7-1.8,1.2-2.8,1.6c-1,0.4-2,0.6-3,0.5
			c-1-0.1-1.9-0.3-2.8-0.8c-1.1-0.6-2-1.3-2.6-2.2c-0.6-0.9-1.1-1.8-1.3-2.9c-0.2-1-0.2-2.1,0-3.2c0.2-1.1,0.6-2.2,1.2-3.2
			c0.6-1,1.2-1.8,1.9-2.6c0.7-0.7,1.3-1.3,1.9-1.7c0.2-0.2,0.3-0.4,0.3-0.7c0-0.2-0.1-0.5-0.3-0.7l0.6-1.1l6.4,1.6l-1.3,2.2
			c-0.6-0.2-1.3-0.2-2,0c-0.7,0.2-1.4,0.5-2.1,0.9c-0.7,0.4-1.2,0.9-1.8,1.5c-0.5,0.6-0.9,1.2-1.2,1.9c-0.4,0.8-0.5,1.5-0.3,2.2
			c0.1,0.7,0.5,1.2,1,1.6c0.5,0.4,1.1,0.5,1.9,0.4c0.8-0.1,1.6-0.6,2.6-1.4c1-0.9,2-1.7,3.1-2.7c1.1-0.9,2.2-1.7,3.3-2.3
			c1.2-0.6,2.4-1,3.7-1.1c1.3-0.1,2.6,0.2,4,1c1.2,0.7,2.2,1.6,2.8,2.5c0.6,1,1,2.1,1.1,3.2c0.1,1.1,0,2.3-0.3,3.5
			c-0.3,1.2-0.8,2.3-1.4,3.4c-0.5,0.9-1.1,1.7-1.8,2.4c-0.7,0.7-1.4,1.3-2.3,2c-0.5,0.3-0.8,0.8-1.1,1.3
			C704.6,406.5,704.8,407,705.4,407.6z"/>
		<path class="st3" d="M708,355l0.5,0.3c-0.1,0.5-0.1,1,0.1,1.5c0.2,0.5,0.5,0.9,1,1.2l16.1,11.1c0.5,0.3,1,0.5,1.5,0.4
			c0.5,0,1-0.2,1.4-0.5l0.5,0.3l-5.6,8.1l-0.5-0.3c0.1-0.5,0.1-1-0.1-1.5c-0.2-0.5-0.5-0.9-1-1.2l-6.7-4.6l-4.5,6.6l6.7,4.6
			c0.5,0.3,0.9,0.5,1.5,0.5c0.5,0,1-0.2,1.5-0.5l0.5,0.3l-5.6,8.1l-0.5-0.3c0.1-0.5,0.1-1-0.1-1.5c-0.2-0.5-0.5-0.9-1-1.2
			l-16.1-11.1c-0.5-0.3-1-0.5-1.5-0.4c-0.5,0-1,0.2-1.4,0.5l-0.5-0.3l5.6-8.1l0.5,0.3c-0.1,0.5-0.1,1,0.1,1.5c0.2,0.5,0.5,0.9,1,1.2
			l6.8,4.6l4.5-6.6l-6.8-4.6c-0.5-0.3-1-0.5-1.5-0.4c-0.6,0-1,0.2-1.4,0.5l-0.5-0.3L708,355z"/>
		<path class="st3" d="M726.7,332.1l0.2-0.3c1-1.1,2.1-1.8,3.2-2.2c1.1-0.4,2.1-0.6,3.1-0.5c1,0.1,2,0.3,2.8,0.8
			c0.9,0.5,1.6,1.1,2.2,1.7c1,1.1,1.6,2.4,1.8,3.7c0.2,1.4,0.1,2.7-0.2,4.1c-0.3,1.4-0.8,2.7-1.5,4c-0.7,1.3-1.3,2.4-2,3.4l4.1,3.7
			c0.4,0.4,0.9,0.6,1.4,0.6c0.5,0.1,1,0,1.5-0.3l0.5,0.4l-6.5,7.3l-0.5-0.4c0.2-0.5,0.2-1,0.1-1.5c-0.1-0.5-0.4-1-0.8-1.3l-14.7-13
			c-0.4-0.4-0.9-0.6-1.4-0.6c-0.5,0-1,0.1-1.5,0.3l-0.5-0.4L726.7,332.1z M725.5,337.3l8.3,7.4c0.9-1.2,1.5-2.3,1.8-3.4
			c0.2-1.1,0.3-2.2,0-3.1c-0.2-1-0.6-1.8-1.2-2.5c-0.6-0.7-1.3-1.3-2-1.7c-0.7-0.4-1.4-0.6-2.1-0.7c-0.7,0-1.3,0.2-1.7,0.6
			L725.5,337.3z"/>
		<path class="st3" d="M744.6,313.7l0.3-0.2c1.1-1,2.2-1.7,3.2-2.2c1-0.4,2-0.6,2.9-0.6c0.9,0,1.7,0.3,2.5,0.7
			c0.8,0.5,1.4,1.1,2,1.9c0.9,1.2,1.4,2.4,1.5,3.6c0.1,1.2,0,2.5-0.4,3.7l7.8,2.5l3.7,1.2c0.3,0.1,0.6,0.1,0.9,0.1
			c0.3,0,0.6-0.1,0.8-0.2l0.5,0.5l-3,2.9c-0.9,0.8-1.8,1.3-2.7,1.4c-0.9,0.1-1.9,0-3-0.3l-7.7-2.7c-0.3,0.4-0.6,0.8-0.9,1.3
			c-0.3,0.4-0.6,0.8-0.9,1.2l4.7,5c0.4,0.4,0.8,0.6,1.4,0.7c0.5,0.1,1,0,1.5-0.2l0.5,0.5l-7.1,6.8l-0.5-0.5c0.3-0.5,0.3-1,0.3-1.5
			c-0.1-0.5-0.3-1-0.7-1.4l-13.5-14.2c-0.4-0.4-0.8-0.6-1.3-0.7c-0.5-0.1-1,0-1.5,0.2l-0.4-0.4L744.6,313.7z M749.7,326
			c1.1-1.1,1.8-2.2,2.2-3.2c0.4-1.1,0.6-2.1,0.5-3c-0.1-0.9-0.4-1.7-0.8-2.4c-0.5-0.7-1-1.3-1.6-1.7c-0.6-0.4-1.3-0.7-1.9-0.7
			c-0.7-0.1-1.2,0.1-1.7,0.5l-3.5,3.3L749.7,326z"/>
		<path class="st3" d="M780.8,311.2c0.1-0.5,0.1-1,0-1.5l0.8-0.7l2.1,4.7l-11.8,9.6l-0.4-0.5c0.3-0.4,0.4-0.9,0.4-1.5
			c0-0.5-0.2-1-0.6-1.5L759,304.7c-0.4-0.5-0.8-0.7-1.3-0.9c-0.5-0.1-1-0.1-1.5,0l-0.4-0.5l11.6-9.4l2.7,2l1.5,1l-0.9,0.7
			c-0.4-0.3-0.9-0.4-1.5-0.4c-0.5,0-1,0.2-1.5,0.6l-3.6,2.9l4.9,6l2.5-2.1c0.7-0.5,1-1.3,1-2.2l0.8-0.7l2.5,5.8l-0.4,0.4
			c-0.4-0.3-0.9-0.4-1.3-0.4c-0.5,0-0.9,0.1-1.3,0.4l-1.7,1.4l5,6.2l3.8-3.1C780.4,312.2,780.6,311.7,780.8,311.2z"/>
		<path class="st3" d="M788.7,278.5l2.6,2.2l0.9,0.7l-0.9,0.6c-0.9-0.3-1.7-0.2-2.5,0.3l-3.4,2.4l11,15.8c0.3,0.4,0.7,0.8,1.2,0.9
			s1,0.2,1.5,0l0.4,0.5l-8,5.6l-0.4-0.5c0.3-0.4,0.4-0.9,0.5-1.4c0-0.5-0.1-1-0.5-1.5l-11-15.8l-3.4,2.3c-0.7,0.5-1.1,1.2-1.2,2.2
			l-0.8,0.6l-0.4-1.1l-1.2-3.2L788.7,278.5z"/>
		<path class="st3" d="M814.7,288.3c0.2-0.5,0.3-1,0.2-1.5l0.9-0.5l1.4,4.9l-14.2,8.5l-0.3-0.5c0.4-0.4,0.7-1,1-1.6
			c0.2-0.6,0.3-1.3,0.3-1.9l-1.8-21.4l-4.2,2.5c-0.5,0.3-0.9,0.7-1.1,1.2c-0.2,0.5-0.3,1-0.1,1.5l-0.8,0.5l-1.5-4.9l14.2-8.5
			l0.3,0.6c-0.4,0.4-0.7,1-0.9,1.6c-0.2,0.6-0.3,1.2-0.3,1.9l1.7,21.5l4.3-2.6C814.1,289.2,814.5,288.8,814.7,288.3z"/>
		<path class="st3" d="M834.9,277.6c0.3-0.5,0.3-1,0.3-1.5l1-0.5l1,5l-13.6,6.8l-0.3-0.6c0.4-0.4,0.6-0.8,0.7-1.4
			c0.1-0.5,0-1.1-0.3-1.6l-8.7-17.4c-0.3-0.5-0.6-0.9-1.1-1.2c-0.5-0.3-1-0.3-1.5-0.3l-0.3-0.6l13.3-6.7l2.2,2.5l1.2,1.3l-1,0.5
			c-0.4-0.4-0.8-0.6-1.3-0.7c-0.5-0.1-1,0-1.6,0.2l-4.1,2.1l3.5,7l2.9-1.5c0.8-0.4,1.3-1,1.5-1.9l1-0.5l1.2,6.2l-0.5,0.3
			c-0.4-0.4-0.8-0.6-1.2-0.7s-0.9-0.1-1.4,0.1l-2,1l3.6,7.2l4.4-2.2C834.3,278.5,834.7,278.1,834.9,277.6z"/>
		<path class="st3" d="M852,270.6c0.9-0.5,1.3-1.2,1.3-2.1l0.6-0.2l0.6,4.9l-13.5,5.6l-0.2-0.6c0.4-0.3,0.6-0.8,0.8-1.3
			c0.1-0.5,0.1-1.1-0.1-1.6l-7.5-18.1c-0.2-0.5-0.6-0.9-1-1.2c-0.5-0.3-0.9-0.4-1.5-0.4l-0.2-0.6l9.1-3.8l0.2,0.6
			c-0.4,0.4-0.7,0.8-0.8,1.3c-0.1,0.5-0.1,1,0.2,1.6l7.4,17.8L852,270.6z"/>
		<path class="st3" d="M859.9,271l-0.8,0.3L856,262l1.1-0.4c0.6,0.8,1.3,1.6,2.1,2.3c0.8,0.7,1.7,1.3,2.6,1.7
			c0.6,0.2,1.2,0.4,1.9,0.5c0.7,0.1,1.4,0.1,2.1,0c0.7-0.1,1.4-0.3,2-0.6c0.6-0.3,1.1-0.8,1.4-1.3c0.4-0.7,0.5-1.5,0.3-2.3
			c-0.2-0.8-0.6-1.4-1.3-1.8c-0.7-0.4-1.5-0.6-2.4-0.7c-0.9-0.1-1.9-0.1-3-0.2c-1.1,0-2.1-0.1-3.2-0.2c-1.1-0.1-2.2-0.3-3.1-0.7
			c-1-0.4-1.9-0.9-2.6-1.6c-0.7-0.7-1.2-1.5-1.5-2.5c-0.4-1.2-0.6-2.3-0.5-3.4c0.1-1.1,0.5-2.1,1-3c0.5-0.9,1.3-1.7,2.2-2.4
			c0.9-0.7,1.9-1.2,3.1-1.6c1.1-0.4,2.1-0.6,3.1-0.7c1-0.1,1.8-0.1,2.6,0c0.3,0,0.5-0.1,0.7-0.3c0.2-0.2,0.3-0.4,0.2-0.7l1.2-0.4
			l3.7,5.5l-2.4,0.8c-0.4-0.6-0.9-1-1.5-1.4c-0.7-0.3-1.4-0.6-2.1-0.7c-0.8-0.1-1.6-0.1-2.3-0.1c-0.8,0.1-1.5,0.3-2.2,0.6
			c-0.8,0.3-1.4,0.8-1.7,1.4c-0.4,0.6-0.5,1.2-0.3,1.8c0.1,0.6,0.5,1.1,1.2,1.6c0.6,0.4,1.6,0.7,2.9,0.7c1.3,0,2.7,0.1,4.1,0.1
			c1.4,0,2.7,0.2,4,0.5c1.3,0.3,2.4,0.9,3.4,1.7c1,0.8,1.8,1.9,2.3,3.4c0.5,1.4,0.6,2.6,0.4,3.8s-0.6,2.2-1.3,3.1
			c-0.7,0.9-1.5,1.7-2.5,2.4c-1,0.7-2.1,1.2-3.3,1.6c-1,0.3-1.9,0.5-2.9,0.6c-1,0.1-2,0-3-0.1c-0.6-0.1-1.1,0-1.7,0.2
			C860,269.7,859.8,270.2,859.9,271z"/>
		<path class="st3" d="M903.9,258.6l-1.7,0.3c-0.3,0-0.5,0-0.8,0c-0.2,0-0.5,0-0.8,0c-1.1-0.2-2.2-0.6-3.1-1.3
			c-0.9-0.7-1.7-1.5-2.3-2.5l-7.9-16.8c-0.3-0.4-0.6-0.8-1.1-1.1c-0.5-0.3-1-0.4-1.5-0.5l-0.1-0.6l9.5-1.7l0.1,0.6
			c-0.3,0.2-0.6,0.5-0.7,0.9c-0.1,0.4-0.1,0.8,0.1,1.2l7.4,15.8l1.2-14l-1.4-3.1c-0.3-0.4-0.6-0.8-1.1-1.1c-0.5-0.3-1-0.4-1.5-0.5
			l-0.1-0.6l9.5-1.7l0.1,0.7c-0.3,0.2-0.6,0.5-0.7,0.9c-0.1,0.4-0.1,0.8,0.1,1.2l7.4,15.8l1.5-17.4c0-0.5-0.1-0.8-0.3-1.1
			c-0.2-0.3-0.6-0.5-1-0.6l-0.1-0.7l6.4-1.2l0.1,0.6c-0.4,0.2-0.9,0.5-1.2,1c-0.4,0.4-0.6,0.9-0.6,1.4l-2,23.7l-1.7,0.3
			c-0.3,0-0.5,0-0.8,0c-0.2,0-0.5,0-0.7,0c-1.1-0.2-2.2-0.6-3.1-1.3c-0.9-0.7-1.7-1.5-2.2-2.5l-3.8-7.9L903.9,258.6z"/>
		<path class="st3" d="M935,228.5l0.1,0.6c-0.5,0.2-0.8,0.6-1.1,1c-0.3,0.5-0.4,1-0.3,1.5l1.8,19.5c0,0.5,0.2,1,0.6,1.4
			c0.3,0.4,0.8,0.7,1.3,0.8l0.1,0.6l-9.7,0.9l-0.1-0.6c0.5-0.2,0.9-0.6,1.1-1c0.3-0.5,0.4-1,0.3-1.5l-1.8-19.5c0-0.5-0.2-1-0.6-1.4
			c-0.3-0.4-0.8-0.7-1.3-0.8l-0.1-0.6L935,228.5z"/>
		<path class="st3" d="M960.1,227.5l1,3.3l0.3,1.1l-1.1,0c-0.6-0.7-1.3-1.1-2.2-1.1l-4.1,0.1l0.5,19.3c0,0.5,0.2,1,0.5,1.5
			c0.3,0.4,0.7,0.7,1.3,0.9l0,0.7l-9.8,0.3l0-0.7c0.5-0.2,0.9-0.5,1.2-0.9c0.3-0.4,0.4-0.9,0.4-1.5l-0.5-19.3l-4.1,0.1
			c-0.9,0-1.6,0.4-2.2,1.2l-1,0l0.3-1.1l0.8-3.4L960.1,227.5z"/>
		<path class="st3" d="M989.7,228.8l0,0.6c-0.5,0.1-0.9,0.4-1.3,0.8c-0.4,0.4-0.5,0.9-0.6,1.5l-1.2,19.5c0,0.5,0.1,1,0.4,1.5
			c0.3,0.5,0.7,0.8,1.1,1l0,0.6l-9.8-0.6l0-0.6c0.5-0.1,0.9-0.4,1.3-0.8c0.4-0.4,0.5-0.9,0.6-1.5l0.5-8.1l-8-0.5l-0.5,8.1
			c0,0.5,0.1,1,0.4,1.5c0.3,0.5,0.7,0.8,1.2,1l0,0.6l-9.8-0.6l0-0.6c0.5-0.1,0.9-0.4,1.3-0.8c0.4-0.4,0.5-0.9,0.6-1.5l1.2-19.5
			c0-0.5-0.1-1-0.4-1.5c-0.3-0.5-0.7-0.8-1.1-1l0-0.6l9.8,0.6l0,0.6c-0.5,0.1-0.9,0.4-1.3,0.9c-0.3,0.4-0.5,0.9-0.6,1.5l-0.5,8.2
			l8,0.5l0.5-8.2c0-0.5-0.1-1.1-0.4-1.5c-0.3-0.5-0.7-0.8-1.1-1l0-0.6L989.7,228.8z"/>
		<path class="st3" d="M1001.7,255.3c0.6-0.1,1.1-0.3,1.6-0.6c0.5-0.4,0.9-0.8,1.2-1.3l8.9-18.4c0.2-0.4,0.2-0.8,0.1-1.2
			c-0.1-0.4-0.3-0.8-0.6-1.1l0.1-0.6l7.9,1.5l1.7,23.3c0.1,0.6,0.2,1.2,0.6,1.7c0.3,0.5,0.7,0.9,1.3,1.2l-0.1,0.6l-9.5-1.8l0.1-0.7
			c0.4-0.1,0.7-0.4,1-0.7c0.3-0.4,0.4-0.8,0.3-1.4l-0.3-4.3l-6.4-1.2l-1.9,3.9c-0.2,0.5-0.3,1-0.2,1.4c0.1,0.4,0.3,0.8,0.6,1.1
			l-0.1,0.7l-6.3-1.2L1001.7,255.3z M1015.9,248.7l-0.7-10.1l-4.4,9.1L1015.9,248.7z"/>
		<path class="st3" d="M1032.8,260.9c0.2,0.5,0.5,0.9,0.9,1.2l-0.2,0.6l-6.4-1.8l0.2-0.6c0.5,0,1-0.2,1.4-0.6
			c0.4-0.3,0.7-0.8,0.9-1.3l5.4-18.8c0.2-0.6,0.1-1.1-0.1-1.6c-0.2-0.5-0.5-0.9-0.9-1.2l0.2-0.6l8.6,2.4l1.5,20.5l4.5-15.7
			c0.2-0.6,0.1-1.1,0-1.6c-0.2-0.5-0.5-0.9-0.9-1.2l0.2-0.6l6.4,1.8l-0.2,0.6c-0.5,0-1,0.2-1.4,0.5c-0.4,0.3-0.7,0.8-0.9,1.3
			l-5.4,18.8c-0.2,0.5-0.1,1,0.1,1.6c0.2,0.5,0.5,0.9,0.9,1.2l-0.2,0.6l-4.1-1.2c-1.4-0.4-2.5-1.1-3.4-2.2c-0.9-1.1-1.4-2.3-1.5-3.7
			l-1.1-15.4l-4.3,15.2C1032.7,259.8,1032.7,260.3,1032.8,260.9z"/>
		<path class="st3" d="M1060.4,270.3c0.6,0.1,1.1,0,1.7-0.3c0.6-0.2,1-0.6,1.4-1.1l12.6-16.1c0.3-0.3,0.4-0.7,0.4-1.2
			c0-0.4-0.1-0.8-0.4-1.2l0.2-0.6l7.4,3.2l-3.3,23.1c-0.1,0.6,0,1.2,0.2,1.8c0.2,0.6,0.5,1,1,1.4l-0.2,0.6l-8.9-3.8l0.3-0.7
			c0.4,0,0.8-0.2,1.1-0.5c0.3-0.3,0.5-0.7,0.6-1.3l0.6-4.3l-6-2.5l-2.7,3.4c-0.3,0.4-0.5,0.9-0.5,1.3c0,0.4,0.1,0.8,0.4,1.2
			l-0.3,0.7l-5.9-2.5L1060.4,270.3z M1075.6,266.9l1.4-10l-6.2,7.9L1075.6,266.9z"/>
		<path class="st3" d="M1107.6,264.6l0.3,0.2c1.3,0.7,2.3,1.5,3.1,2.4c0.7,0.8,1.2,1.7,1.5,2.6c0.2,0.9,0.3,1.7,0.1,2.6
			c-0.2,0.9-0.6,1.7-1.1,2.5c-0.8,1.2-1.8,2-3,2.5c-1.1,0.5-2.4,0.8-3.7,0.8l0.1,8.2v3.9c0,0.3,0.1,0.6,0.2,0.9
			c0.1,0.3,0.2,0.5,0.4,0.7l-0.3,0.6l-3.7-2c-1.1-0.6-1.8-1.3-2.2-2.1c-0.4-0.8-0.6-1.8-0.6-2.9l0.2-8.2c-0.5-0.2-1-0.3-1.5-0.5
			c-0.5-0.2-1-0.3-1.4-0.5l-3.2,6c-0.3,0.5-0.3,1-0.3,1.5c0.1,0.5,0.3,1,0.6,1.4l-0.3,0.6l-8.7-4.7l0.3-0.6c0.5,0.1,1,0,1.5-0.2
			c0.5-0.2,0.8-0.6,1.1-1.1l9.3-17.2c0.3-0.5,0.4-1,0.3-1.5c-0.1-0.5-0.3-1-0.6-1.4l0.3-0.5L1107.6,264.6z M1097.5,273.3
			c1.4,0.7,2.6,1.1,3.8,1.1c1.1,0,2.1-0.1,3-0.5c0.8-0.4,1.5-0.9,2.1-1.5c0.5-0.7,0.9-1.4,1.1-2.1c0.2-0.7,0.2-1.4,0.1-2
			c-0.1-0.6-0.5-1.1-1-1.5l-4.2-2.3L1097.5,273.3z"/>
		<path class="st3" d="M1135.6,281.4l-1.1,3.3l-0.3,1.1l-0.9-0.6c-0.1-0.9-0.5-1.6-1.2-2.1l-3.5-2.2l-10.4,16.2
			c-0.3,0.5-0.4,1-0.4,1.5c0,0.5,0.2,1,0.5,1.4l-0.4,0.6l-8.2-5.3l0.4-0.6c0.5,0.1,1,0.1,1.5-0.1c0.5-0.2,0.9-0.5,1.2-1l10.4-16.2
			l-3.4-2.2c-0.7-0.5-1.6-0.6-2.5-0.3l-0.9-0.6l0.8-0.7l2.5-2.3L1135.6,281.4z"/>
		<path class="st3" d="M1147.6,290.1l-0.4,0.5c-0.5-0.1-1-0.1-1.5,0c-0.5,0.2-0.9,0.5-1.3,0.9l-11.6,15.8c-0.3,0.4-0.5,0.9-0.5,1.5
			c0,0.5,0.1,1,0.4,1.4l-0.4,0.5l-7.9-5.8l0.4-0.5c0.5,0.2,1,0.2,1.5,0c0.5-0.2,0.9-0.5,1.3-0.9l11.6-15.8c0.3-0.4,0.5-0.9,0.5-1.5
			c0-0.5-0.1-1-0.4-1.5l0.4-0.5L1147.6,290.1z"/>
		<path class="st3" d="M1136.6,313.8l-0.7-0.6l6.2-7.5l0.9,0.8c-0.4,1-0.6,2-0.8,3c-0.2,1-0.2,2.1-0.1,3.2c0.1,0.6,0.3,1.2,0.5,1.9
			c0.3,0.7,0.6,1.3,1.1,1.8c0.5,0.5,1,1,1.6,1.4c0.6,0.4,1.2,0.5,1.9,0.5c0.8,0,1.5-0.3,2.1-0.9c0.6-0.6,0.9-1.3,0.9-2.1
			c0-0.7-0.3-1.5-0.7-2.4c-0.4-0.8-0.9-1.7-1.4-2.7c-0.5-0.9-1-1.9-1.5-2.9c-0.5-1-0.9-2-1.1-3c-0.2-1.1-0.2-2.1,0-3
			c0.2-1,0.7-1.8,1.3-2.6c0.8-1,1.7-1.7,2.7-2.2c1-0.5,2-0.7,3.1-0.7c1.1,0,2.1,0.2,3.2,0.6c1.1,0.4,2.1,1,3,1.8
			c0.9,0.7,1.6,1.5,2.2,2.3c0.6,0.8,1.1,1.5,1.4,2.1c0.2,0.2,0.4,0.4,0.6,0.4c0.2,0.1,0.5,0,0.7-0.2l1,0.8l-2.8,6l-2-1.6
			c0.3-0.6,0.4-1.3,0.3-2c-0.1-0.7-0.2-1.5-0.5-2.2c-0.3-0.7-0.7-1.4-1.2-2c-0.5-0.6-1-1.1-1.6-1.5c-0.7-0.5-1.4-0.7-2.1-0.7
			c-0.7,0-1.3,0.2-1.7,0.7c-0.4,0.4-0.7,1-0.7,1.8c0,0.8,0.3,1.7,0.9,2.8c0.7,1.1,1.4,2.3,2.1,3.5c0.7,1.2,1.3,2.4,1.7,3.7
			c0.4,1.3,0.5,2.5,0.4,3.8c-0.1,1.3-0.7,2.5-1.7,3.8c-0.9,1.1-1.9,1.9-3,2.3c-1.1,0.4-2.2,0.6-3.3,0.5c-1.1-0.1-2.3-0.4-3.4-0.9
			c-1.1-0.5-2.1-1.2-3.1-2c-0.8-0.7-1.5-1.4-2-2.2c-0.5-0.8-1.1-1.6-1.5-2.6c-0.2-0.5-0.6-0.9-1.1-1.3
			C1137.8,313.3,1137.3,313.3,1136.6,313.8z"/>
		<path class="st3" d="M1152.2,325.9c0.5,0.3,1.1,0.4,1.7,0.4c0.6,0,1.2-0.2,1.7-0.5l17.6-10.4c0.4-0.2,0.6-0.5,0.8-0.9
			c0.2-0.4,0.2-0.8,0.1-1.3l0.4-0.4l5.8,5.7l-11.5,20.3c-0.3,0.5-0.4,1.1-0.5,1.7c0,0.6,0.1,1.2,0.4,1.7l-0.4,0.4l-6.9-6.8l0.5-0.5
			c0.4,0.1,0.8,0.1,1.2-0.1c0.4-0.2,0.8-0.5,1-1l2.1-3.7l-4.6-4.6l-3.7,2.2c-0.5,0.3-0.8,0.6-1,1c-0.2,0.4-0.2,0.8-0.1,1.2l-0.5,0.5
			l-4.6-4.5L1152.2,325.9z M1167.6,328.3l5-8.8l-8.7,5.1L1167.6,328.3z"/>
		<path class="st3" d="M1175,347.8c-0.1,0.5-0.1,1,0.1,1.5l-0.5,0.4l-4.3-5.1l0.5-0.4c0.4,0.3,0.9,0.4,1.5,0.3c0.5,0,1-0.2,1.4-0.6
			l14.9-12.7c0.4-0.4,0.7-0.8,0.8-1.4c0.1-0.5,0.1-1-0.1-1.5l0.5-0.4l5.8,6.8l-10.1,17.9l12.4-10.6c0.4-0.4,0.7-0.8,0.8-1.3
			c0.1-0.5,0.1-1-0.1-1.5l0.5-0.4l4.3,5l-0.5,0.4c-0.4-0.3-0.9-0.4-1.5-0.3c-0.5,0-1,0.2-1.5,0.6l-14.9,12.7
			c-0.4,0.4-0.7,0.8-0.8,1.3c-0.1,0.5-0.1,1,0.1,1.5l-0.5,0.4l-2.8-3.3c-1-1.1-1.5-2.3-1.6-3.7c-0.1-1.4,0.1-2.7,0.8-3.9l7.6-13.4
			l-12,10.3C1175.5,346.8,1175.2,347.3,1175,347.8z"/>
		<path class="st3" d="M1224.8,373.9l-2.3,2.6l-0.7,0.9l-0.6-0.9c0.3-0.9,0.2-1.7-0.3-2.5l-2.3-3.5l-16.1,10.7
			c-0.5,0.3-0.8,0.7-1,1.2c-0.2,0.5-0.2,1-0.1,1.5l-0.6,0.4l-5.4-8.1l0.6-0.4c0.4,0.3,0.9,0.5,1.4,0.5c0.5,0,1-0.1,1.5-0.4
			l16.1-10.7l-2.3-3.4c-0.5-0.7-1.2-1.2-2.2-1.2l-0.6-0.9l1.1-0.3l3.3-1.1L1224.8,373.9z"/>
		<path class="st3" d="M1212.3,403.5l-0.8-1.5c-0.1-0.3-0.1-0.5-0.2-0.8c-0.1-0.2-0.1-0.5-0.2-0.8c-0.2-1.1-0.1-2.3,0.3-3.4
			c0.4-1.1,1-2.1,1.7-2.9l13.7-12.5c0.3-0.4,0.6-0.8,0.7-1.4c0.1-0.5,0.1-1.1,0-1.5l0.5-0.3l4.5,8.5l-0.5,0.3
			c-0.3-0.3-0.7-0.4-1.1-0.4c-0.4,0-0.8,0.1-1.1,0.5l-12.9,11.8l13.7-3l2.5-2.3c0.3-0.4,0.6-0.8,0.7-1.4c0.1-0.5,0.1-1.1,0-1.5
			l0.5-0.3l4.5,8.5l-0.6,0.3c-0.3-0.3-0.7-0.4-1.1-0.4c-0.4,0-0.8,0.1-1.1,0.4l-12.9,11.7l17-3.8c0.4-0.1,0.8-0.3,1-0.7
			c0.2-0.3,0.3-0.7,0.3-1.1l0.6-0.3l3,5.8l-0.5,0.3c-0.3-0.4-0.8-0.7-1.3-0.9s-1-0.3-1.5-0.1l-23.3,5.1l-0.8-1.5
			c-0.1-0.3-0.1-0.5-0.2-0.8c-0.1-0.2-0.1-0.5-0.2-0.7c-0.2-1.1-0.1-2.3,0.3-3.3c0.4-1.1,1-2,1.8-2.9l6.4-6L1212.3,403.5z"/>
		<path class="st3" d="M1250.3,424.2l-0.6,0.2c-0.3-0.4-0.8-0.6-1.3-0.7c-0.5-0.1-1-0.1-1.5,0.1l-18.1,7.4c-0.5,0.2-0.9,0.5-1.2,1
			s-0.4,0.9-0.4,1.4l-0.6,0.2l-3.7-9l0.6-0.2c0.4,0.4,0.8,0.7,1.3,0.8c0.5,0.1,1,0.1,1.5-0.1l18.1-7.4c0.5-0.2,0.9-0.5,1.2-1
			c0.3-0.5,0.4-0.9,0.4-1.5l0.6-0.2L1250.3,424.2z"/>
		<path class="st3" d="M1228.6,438.8l-0.3-0.8l9.2-3.1l0.4,1.1c-0.8,0.6-1.6,1.3-2.3,2.1c-0.7,0.8-1.3,1.7-1.7,2.6
			c-0.2,0.6-0.4,1.2-0.5,1.9c-0.1,0.7-0.1,1.4,0,2.1c0.1,0.7,0.3,1.4,0.6,2c0.3,0.6,0.8,1.1,1.4,1.4c0.7,0.4,1.5,0.5,2.3,0.3
			c0.8-0.2,1.4-0.6,1.8-1.3c0.4-0.7,0.6-1.5,0.6-2.4c0.1-0.9,0.1-1.9,0.2-3c0-1.1,0.1-2.1,0.2-3.2c0.1-1.1,0.3-2.2,0.6-3.1
			c0.4-1,0.9-1.9,1.6-2.6c0.7-0.7,1.5-1.2,2.5-1.5c1.2-0.4,2.3-0.6,3.4-0.5c1.1,0.1,2.1,0.4,3,1c0.9,0.5,1.7,1.3,2.4,2.2
			c0.7,0.9,1.2,1.9,1.6,3c0.4,1.1,0.6,2.1,0.7,3.1c0.1,1,0.1,1.8,0.1,2.6c0,0.3,0.1,0.5,0.3,0.7c0.2,0.2,0.4,0.3,0.7,0.2l0.4,1.2
			l-5.5,3.7l-0.8-2.4c0.6-0.4,1-0.9,1.3-1.5c0.3-0.7,0.6-1.4,0.7-2.1c0.1-0.8,0.1-1.6,0-2.3c-0.1-0.8-0.3-1.5-0.6-2.2
			c-0.3-0.8-0.8-1.4-1.4-1.7c-0.6-0.4-1.2-0.5-1.8-0.3c-0.6,0.1-1.1,0.5-1.5,1.2c-0.4,0.6-0.6,1.6-0.6,2.9c0,1.3,0,2.7,0,4.1
			c0,1.4-0.2,2.7-0.5,4c-0.3,1.3-0.9,2.4-1.6,3.4c-0.8,1-1.9,1.8-3.4,2.3c-1.4,0.5-2.6,0.6-3.8,0.4c-1.2-0.2-2.2-0.6-3.1-1.3
			c-0.9-0.7-1.7-1.5-2.4-2.5c-0.7-1-1.2-2.1-1.6-3.3c-0.3-1-0.5-1.9-0.6-2.9c-0.1-1,0-2,0-3c0.1-0.6,0-1.1-0.2-1.7
			C1229.9,439,1229.4,438.7,1228.6,438.8z"/>
		<path class="st3" d="M1264.6,469.6l-3,1.7l-1,0.6l-0.3-1c0.6-0.7,0.8-1.5,0.5-2.4l-1-4l-18.7,4.9c-0.5,0.1-1,0.4-1.3,0.8
			c-0.3,0.4-0.5,0.9-0.6,1.4l-0.6,0.2l-2.5-9.5l0.6-0.2c0.3,0.4,0.7,0.7,1.2,0.9c0.5,0.2,1,0.2,1.5,0.1l18.7-4.9l-1-4
			c-0.2-0.9-0.8-1.5-1.7-1.9l-0.3-1l1.1,0l3.4,0L1264.6,469.6z"/>
	</g>
	<path class="st4" d="M961.5,711.9l5.9,18.1c0.2,0.6,0.8,1.1,1.5,1.1h19c1.5,0,2.2,1.9,0.9,2.8l-15.4,11.2c-0.6,0.4-0.8,1.1-0.6,1.8
		l5.9,18.1c0.5,1.4-1.2,2.6-2.4,1.8l-15.4-11.2c-0.6-0.4-1.3-0.4-1.8,0l-15.4,11.2c-1.2,0.9-2.9-0.3-2.4-1.8l5.9-18.1
		c0.2-0.6,0-1.4-0.6-1.8l-15.4-11.2c-1.2-0.9-0.6-2.8,0.9-2.8h19c0.7,0,1.3-0.4,1.5-1.1l5.9-18.1C959,710.5,961,710.5,961.5,711.9z"
		/>
	<g>
		<g>
			<path class="st4" d="M1030.7,715.3l3.3,10.2c0.2,0.6,0.8,1.1,1.5,1.1h10.7c1.5,0,2.2,1.9,0.9,2.8l-8.7,6.3
				c-0.6,0.4-0.8,1.1-0.6,1.8l3.3,10.2c0.5,1.4-1.2,2.6-2.4,1.8l-8.7-6.3c-0.6-0.4-1.3-0.4-1.8,0l-8.7,6.3c-1.2,0.9-2.9-0.3-2.4-1.8
				l3.3-10.2c0.2-0.6,0-1.4-0.6-1.8l-8.7-6.3c-1.2-0.9-0.6-2.8,0.9-2.8h10.7c0.7,0,1.3-0.4,1.5-1.1l3.3-10.2
				C1028.2,713.8,1030.2,713.8,1030.7,715.3z"/>
			<path class="st4" d="M892.3,715.3l3.3,10.2c0.2,0.6,0.8,1.1,1.5,1.1h10.7c1.5,0,2.2,1.9,0.9,2.8l-8.7,6.3
				c-0.6,0.4-0.8,1.1-0.6,1.8l3.3,10.2c0.5,1.4-1.2,2.6-2.4,1.8l-8.7-6.3c-0.6-0.4-1.3-0.4-1.8,0l-8.7,6.3c-1.2,0.9-2.9-0.3-2.4-1.8
				l3.3-10.2c0.2-0.6,0-1.4-0.6-1.8l-8.7-6.3c-1.2-0.9-0.6-2.8,0.9-2.8h10.7c0.7,0,1.3-0.4,1.5-1.1l3.3-10.2
				C889.8,713.8,891.8,713.8,892.3,715.3z"/>
		</g>
	</g>
	<g>
		<path class="st3" d="M730.5,715.1c-1.6,1.3-2.4,3.1-2.4,5c0,1.4,0.5,2.8,1.4,4c1.3,1.6,3.1,2.4,5,2.4c1.4,0,2.8-0.5,4-1.4
			c1.6-1.3,2.4-3.1,2.4-5c0-1.4-0.5-2.8-1.4-4C737.3,713.3,733.3,712.9,730.5,715.1z"/>
		<path class="st3" d="M784.2,760.7c-2.8-2.2-6.8-1.8-9,1c-0.9,1.2-1.4,2.6-1.4,4c0,1.9,0.8,3.7,2.4,5c1.2,0.9,2.6,1.4,4,1.4
			c1.9,0,3.7-0.8,5-2.4c0.9-1.2,1.4-2.6,1.4-4C786.6,763.9,785.8,762,784.2,760.7z"/>
		<path class="st3" d="M751.5,739.7c-1.2,1.2-1.9,2.9-1.9,4.5c0,1.6,0.6,3.3,1.9,4.5c1.3,1.3,2.9,1.9,4.5,1.9c1.6,0,3.3-0.6,4.5-1.9
			c1.2-1.3,1.9-2.9,1.9-4.5s-0.6-3.3-1.9-4.5C758.1,737.2,754,737.2,751.5,739.7z"/>
		<path class="st3" d="M1136,760.6c-1.6,1.3-2.4,3.1-2.4,5c0,1.4,0.5,2.8,1.4,4c1.3,1.6,3.1,2.4,5,2.4c1.4,0,2.8-0.5,4-1.4
			c1.6-1.3,2.4-3.1,2.4-5c0-1.4-0.5-2.8-1.4-4C1142.8,758.8,1138.7,758.4,1136,760.6z"/>
		<path class="st3" d="M1159.6,739.5c-1.2,1.3-1.9,2.9-1.9,4.5s0.6,3.3,1.9,4.5c1.3,1.2,2.9,1.9,4.5,1.9c1.6,0,3.3-0.6,4.5-1.9
			c1.3-1.3,1.9-2.9,1.9-4.5s-0.6-3.3-1.9-4.5C1166.1,737,1162.1,737,1159.6,739.5z"/>
		<path class="st3" d="M1189.7,714.9c-2.8-2.2-6.8-1.8-9,1c-1,1.2-1.4,2.6-1.4,4c0,1.9,0.8,3.7,2.4,5c1.2,0.9,2.6,1.4,4,1.4
			c1.9,0,3.7-0.8,5-2.4c0,0,0,0,0,0c1-1.2,1.4-2.6,1.4-4C1192.1,718,1191.2,716.2,1189.7,714.9z"/>
	</g>
	<g>
		<path class="st3" d="M997.5,297.1c-15.1-1.2-28.6,1.9-39.8,7.9c13.9,6.1,25.3,16.5,31.7,30.7c36.6-1.1,45.1,41.9,22.4,72.5
			c-18.9,25.5-54.4,29.8-76.6,21.7c-13.6,4.8-28.8,7.8-44.5,9c46.4,42.7,122.4,31.1,155.3-19.1C1077.2,372.1,1062.8,303,997.5,297.1
			z"/>
		<path class="st3" d="M951.1,385c-11.2,11.7-28.7,18.9-44.4,23.2c-21.9,6-34,6.2-38.5,14.8c-4.6,9,8.6,16.6,18.8,16.1
			c29.1-1.6,61.8-10.1,84.1-29C976,405.9,955.8,380,951.1,385z"/>
		<path class="st5" d="M951.1,385c-5.5,5.8-12.5,10.4-20.1,14.2c8.6,5.4,10.3,25.7-7.5,34.2c17.5-4.6,34.4-12.1,47.5-23.3
			C976,405.9,955.8,380,951.1,385z"/>
		<path class="st5" d="M1016.3,401.1c-1.3,2.4-2.8,4.8-4.5,7c-18.9,25.5-54.4,29.8-76.6,21.7c-13.6,4.8-28.8,7.8-44.5,9
			c4.1,3.8,8.4,7.1,13,10c20.1-10.8,32.7-12.6,47.3-13.1c19.6-0.7,45.1-0.3,59.3,16.5c14.2-7.6,26.7-18.6,35.8-32.5
			c4.4-6.7,7.9-13.9,10.5-21.3C1043.8,411.7,1020.2,406.6,1016.3,401.1z"/>
		<path class="st3" d="M1037.5,413.8c-32.4-4.9-75.9-22-77-48.8c-1.9-17.5-15.9-30.4-30.1-30.5c-24.3,50.6,20.4,97.7,89.4,105.3
			c6.1,0.7,27.8,4.9,32.9-11.2C1054.8,421.9,1045.7,415,1037.5,413.8z"/>
		<path class="st3" d="M957.7,305c-22.6-9.9-50.9-7.8-71.2,7.2c-35.1,26.1-35,72.2-13.3,105.6c8.4-4,11.4-3.6,33.5-9.6
			c-14.2-18.6-19.1-44.2-4.7-61.3c17.2-20.5,44.7-14,55.1,7.6c1.6,3.3,2.7,7,3.4,11c-0.2,14,11.1,23.9,23.3,30.9
			C1005.4,366,995.4,321.5,957.7,305z"/>
		<path class="st5" d="M960.7,367.6c-0.1-0.8-0.2-1.7-0.2-2.6c-1.9-17.5-15.9-30.4-30.1-30.5c-1.8,3.7-3.2,7.5-4.3,11.2
			C937.6,336.3,958.7,354.4,960.7,367.6z"/>
		<path class="st5" d="M1026.8,436.1c-9.7,0.5-19.4-1.7-28.9-3.3c-5.5-0.9-11.1-1.4-16.6-2.1c11.6,4.5,24.5,7.6,38.5,9.1
			c6.1,0.7,27.8,4.9,32.9-11.2C1046,434.5,1035.7,435.7,1026.8,436.1z"/>
		<path class="st5" d="M869.2,411.1c1.2,2.3,2.5,4.5,3.9,6.6c8.4-4,11.4-3.6,33.5-9.6c-1.3-1.7-2.5-3.5-3.6-5.3
			C894.4,410.5,880.4,414.1,869.2,411.1z"/>
		<path class="st5" d="M988.4,333.6c1.4,5.5,2.2,10.7,2.3,15.2c0.6,17.4-13,22.4-20.9,21.2c-3.6-0.6-7-2.5-9.7-6
			c0.1,0.5,0.2,1,0.3,1.5c-0.2,14,11.1,23.9,23.3,30.9C997.2,377.5,998.4,353.3,988.4,333.6z"/>
		<path class="st5" d="M989.4,335.6c9.1-0.3,16.5,2.2,22.1,6.6c-1.8-2.4-3.9-4.5-5.5-6.1c-5.3-5.3-11.5-9.5-17.3-14.2
			c-5.7-4.5-10.2-11-16.4-14.6c-3.4-2-7-2.5-9.6-4.7c-1.7,0.7-3.4,1.5-5,2.4C971.6,311.1,982.9,321.5,989.4,335.6z"/>
		<g>
			<g>
				<g>
					<path class="st6" d="M951.1,460.7c1.2,0,2.7,0.5,2.7,1c0,0.5-1.6,1-2.8,1s-1.4-0.5-1.4-1C949.6,461.3,949.9,460.7,951.1,460.7z
						"/>
					<path class="st7" d="M951.1,460.9c0.8,0,2,0.3,2,0.6c0,0.3-1.2,0.6-2,0.6s-1-0.3-1-0.6C950,461.2,950.2,460.9,951.1,460.9z"/>
					<path class="st8" d="M951,461.2c0.4,0,0.8,0.1,0.8,0.3c0,0.1-0.5,0.3-0.9,0.3c-0.4,0-0.4-0.1-0.4-0.3S950.6,461.2,951,461.2z"
						/>
				</g>
				<g>
					<path class="st6" d="M942.7,444.2c0.5,1,0.7,2.7,0.3,2.9c-0.4,0.2-1.7-1-2.2-2c-0.5-1-0.1-1.5,0.3-1.7
						C941.6,443.1,942.2,443.2,942.7,444.2z"/>
					<path class="st7" d="M942.5,444.3c0.4,0.8,0.6,1.9,0.3,2c-0.3,0.1-1.1-0.8-1.5-1.6c-0.4-0.8-0.2-1,0.1-1.2
						C941.7,443.5,942.1,443.5,942.5,444.3z"/>
					<path class="st8" d="M942.3,444.3c0.2,0.3,0.3,0.8,0.1,0.9c-0.1,0.1-0.5-0.3-0.6-0.7c-0.2-0.3-0.1-0.4,0-0.5
						S942.1,444,942.3,444.3z"/>
				</g>
				<g>
					<path class="st6" d="M991.9,311.3c1.1,0.8,1.9,2.6,1.4,3.2s-2.5,0.2-3.6-0.6c-1.1-0.8-0.7-1.7-0.2-2.3S990.8,310.5,991.9,311.3
						z"/>
					<path class="st7" d="M991.7,311.6c0.8,0.6,1.4,1.9,1,2.4c-0.4,0.5-1.9,0.1-2.6-0.5c-0.8-0.6-0.5-1.2-0.2-1.7
						C990.3,311.4,990.9,311,991.7,311.6z"/>
					<path class="st8" d="M991.3,312.1c0.4,0.3,0.8,0.9,0.6,1.1c-0.2,0.2-0.9,0-1.3-0.3c-0.4-0.3-0.3-0.6-0.2-0.8
						C990.6,311.9,990.9,311.8,991.3,312.1z"/>
				</g>
				<g>
					<path class="st6" d="M1031.3,335.8c-1-0.9-1.6-2.8-1.1-3.4c0.6-0.6,2.5,0.1,3.5,1c1,0.9,0.5,1.7,0,2.3
						C1033.2,336.3,1032.3,336.7,1031.3,335.8z"/>
					<path class="st7" d="M1031.6,335.5c-0.7-0.7-1.2-2-0.8-2.5c0.4-0.4,1.9,0.1,2.6,0.7c0.7,0.7,0.4,1.3,0,1.7
						C1032.9,335.9,1032.3,336.2,1031.6,335.5z"/>
					<path class="st8" d="M1032,335.1c-0.4-0.3-0.7-1-0.5-1.2c0.2-0.2,0.9,0.1,1.2,0.5c0.4,0.3,0.2,0.6,0.1,0.8
						C1032.6,335.3,1032.3,335.4,1032,335.1z"/>
				</g>
				<g>
					<path class="st6" d="M1055.8,343.3c0.6-1.2,2.2-2.4,2.9-2c0.7,0.4,0.7,2.4,0.1,3.6c-0.6,1.2-1.5,1-2.2,0.7
						C1055.8,345.2,1055.2,344.5,1055.8,343.3z"/>
					<path class="st7" d="M1056.1,343.4c0.4-0.9,1.6-1.7,2.1-1.5c0.5,0.3,0.5,1.8,0.1,2.7c-0.4,0.9-1.1,0.8-1.6,0.5
						C1056.2,344.9,1055.7,344.3,1056.1,343.4z"/>
					<path class="st8" d="M1056.6,343.7c0.2-0.4,0.8-0.9,1-0.8c0.2,0.1,0.1,0.9-0.1,1.3s-0.5,0.4-0.7,0.3
						C1056.6,344.4,1056.4,344.2,1056.6,343.7z"/>
				</g>
				<g>
					<path class="st6" d="M1045,317.6c0.8,1.1,1.1,3,0.4,3.5c-0.7,0.5-2.5-0.6-3.2-1.6c-0.8-1.1-0.2-1.8,0.5-2.3
						C1043.3,316.7,1044.2,316.5,1045,317.6z"/>
					<path class="st7" d="M1044.7,317.9c0.6,0.8,0.8,2.2,0.3,2.6c-0.5,0.3-1.8-0.4-2.4-1.2c-0.6-0.8-0.1-1.3,0.3-1.7
						C1043.4,317.2,1044.1,317.1,1044.7,317.9z"/>
					<path class="st8" d="M1044.2,318.2c0.3,0.4,0.5,1.1,0.3,1.2c-0.2,0.1-0.8-0.3-1.1-0.7s-0.1-0.6,0.1-0.8
						C1043.6,317.8,1043.9,317.8,1044.2,318.2z"/>
				</g>
				<g>
					<path class="st6" d="M1042.4,336.3c-1.1-0.7-2.2-2.3-1.8-3c0.4-0.7,2.5-0.5,3.6,0.2c1.1,0.7,0.9,1.6,0.5,2.3
						C1044.3,336.4,1043.5,337,1042.4,336.3z"/>
					<path class="st7" d="M1042.5,335.9c-0.8-0.5-1.6-1.7-1.3-2.2c0.3-0.5,1.8-0.4,2.7,0.1c0.8,0.5,0.7,1.1,0.4,1.7
						C1043.9,336,1043.4,336.4,1042.5,335.9z"/>
					<path class="st8" d="M1042.8,335.5c-0.4-0.3-0.9-0.8-0.7-1c0.1-0.2,0.9-0.1,1.3,0.2c0.4,0.3,0.4,0.5,0.3,0.7
						C1043.5,335.6,1043.3,335.7,1042.8,335.5z"/>
				</g>
				<g>
					<path class="st6" d="M1055,375.6c-0.1-1.3,0.7-3.1,1.5-3.2c0.8-0.1,1.8,1.8,1.9,3.1s-0.8,1.6-1.6,1.7
						C1056,377.2,1055.1,376.9,1055,375.6z"/>
					<path class="st7" d="M1055.4,375.5c-0.1-1,0.5-2.3,1.1-2.3c0.6,0,1.3,1.3,1.4,2.3c0.1,1-0.6,1.2-1.2,1.2
						C1056.1,376.7,1055.4,376.5,1055.4,375.5z"/>
					<path class="st8" d="M1055.9,375.5c0-0.5,0.2-1.2,0.4-1.2c0.2,0,0.6,0.7,0.6,1.2c0,0.5-0.2,0.6-0.5,0.6
						C1056.2,376.2,1056,376,1055.9,375.5z"/>
				</g>
				<g>
					<path class="st6" d="M1046.1,374.1c-0.6,1.2-2.1,2.4-2.8,2.1c-0.7-0.3-0.8-2.4-0.2-3.6c0.6-1.2,1.5-1.1,2.2-0.7
						C1046,372.2,1046.7,372.9,1046.1,374.1z"/>
					<path class="st7" d="M1045.8,374c-0.4,0.9-1.5,1.8-2.1,1.5s-0.6-1.8-0.2-2.7c0.4-0.9,1.1-0.8,1.6-0.5
						C1045.7,372.6,1046.2,373.1,1045.8,374z"/>
					<path class="st8" d="M1045.3,373.7c-0.2,0.5-0.7,0.9-0.9,0.8c-0.2-0.1-0.2-0.9,0-1.3c0.2-0.5,0.5-0.4,0.7-0.3
						C1045.3,373,1045.5,373.3,1045.3,373.7z"/>
				</g>
				<g>
					<path class="st6" d="M1014.7,330.2c0.9,1,1.3,2.9,0.7,3.5c-0.6,0.5-2.5-0.3-3.4-1.3c-0.9-1-0.4-1.8,0.2-2.3
						C1012.9,329.5,1013.8,329.2,1014.7,330.2z"/>
					<path class="st7" d="M1014.4,330.5c0.6,0.7,1,2.1,0.5,2.5c-0.5,0.4-1.8-0.2-2.5-1c-0.6-0.7-0.3-1.3,0.2-1.7
						C1013.1,329.9,1013.8,329.7,1014.4,330.5z"/>
					<path class="st8" d="M1014,330.8c0.3,0.4,0.6,1.1,0.4,1.2c-0.2,0.2-0.9-0.2-1.2-0.6c-0.3-0.4-0.2-0.6,0-0.8
						C1013.4,330.5,1013.7,330.4,1014,330.8z"/>
				</g>
				<g>
					<path class="st6" d="M905,330.2c1.3-0.3,3.2,0.1,3.4,0.8c0.2,0.8-1.4,2.1-2.7,2.5c-1.3,0.3-1.8-0.4-2-1.2
						C903.6,331.5,903.7,330.5,905,330.2z"/>
					<path class="st7" d="M905.1,330.5c0.9-0.3,2.4,0,2.5,0.6c0.2,0.6-1,1.6-2,1.8c-0.9,0.3-1.3-0.3-1.4-0.9
						C904.1,331.5,904.2,330.8,905.1,330.5z"/>
					<path class="st8" d="M905.2,331.1c0.5-0.1,1.2,0,1.3,0.2c0.1,0.2-0.6,0.7-1,0.8c-0.5,0.1-0.6-0.1-0.7-0.3
						C904.7,331.5,904.7,331.2,905.2,331.1z"/>
				</g>
				<g>
					<path class="st6" d="M952.6,307.7c-1.3,0.3-3.2-0.3-3.4-1.1c-0.2-0.8,1.5-2,2.8-2.3c1.3-0.3,1.7,0.5,1.9,1.3
						C954.1,306.5,953.9,307.5,952.6,307.7z"/>
					<path class="st7" d="M952.5,307.4c-1,0.2-2.3-0.2-2.5-0.8c-0.1-0.6,1.1-1.5,2.1-1.7c1-0.2,1.3,0.4,1.4,1
						C953.6,306.5,953.4,307.2,952.5,307.4z"/>
					<path class="st8" d="M952.4,306.8c-0.5,0.1-1.2,0-1.2-0.3c0-0.2,0.6-0.6,1.1-0.7c0.5-0.1,0.6,0.1,0.7,0.4
						C952.9,306.4,952.9,306.7,952.4,306.8z"/>
				</g>
				<g>
					<path class="st6" d="M906.2,301c1.3,0.1,3,1.2,2.9,2c-0.1,0.8-2,1.5-3.4,1.4c-1.3-0.1-1.5-1-1.4-1.8
						C904.4,301.7,904.9,300.8,906.2,301z"/>
					<path class="st7" d="M906.2,301.3c1,0.1,2.2,0.9,2.1,1.5c-0.1,0.6-1.5,1.1-2.5,1c-1-0.1-1.1-0.8-1-1.3
						C904.9,301.9,905.2,301.2,906.2,301.3z"/>
					<path class="st8" d="M906.1,301.9c0.5,0,1.1,0.4,1.1,0.6c0,0.2-0.8,0.4-1.3,0.4c-0.5,0-0.6-0.3-0.5-0.6
						C905.4,302.1,905.6,301.9,906.1,301.9z"/>
				</g>
				<g>
					<path class="st6" d="M877.4,321.7c0.8-1.1,2.5-2,3.2-1.5c0.7,0.5,0.3,2.5-0.5,3.6c-0.8,1.1-1.6,0.8-2.3,0.3
						C877.2,323.6,876.7,322.8,877.4,321.7z"/>
					<path class="st7" d="M877.8,321.9c0.6-0.8,1.9-1.4,2.3-1.1c0.5,0.4,0.2,1.8-0.4,2.6c-0.6,0.8-1.2,0.6-1.7,0.2
						C877.6,323.3,877.2,322.7,877.8,321.9z"/>
					<path class="st8" d="M878.2,322.2c0.3-0.4,0.9-0.8,1.1-0.6c0.2,0.1,0,0.9-0.3,1.3c-0.3,0.4-0.6,0.3-0.8,0.2
						C878,322.9,877.9,322.6,878.2,322.2z"/>
				</g>
				<g>
					<path class="st6" d="M871.6,346.3c1.1-0.8,3-1.1,3.5-0.5c0.5,0.7-0.5,2.5-1.6,3.3c-1.1,0.8-1.8,0.2-2.3-0.4
						C870.7,348,870.5,347.1,871.6,346.3z"/>
					<path class="st7" d="M871.8,346.6c0.8-0.6,2.2-0.8,2.6-0.3c0.4,0.5-0.4,1.8-1.2,2.4c-0.8,0.6-1.3,0.2-1.7-0.3
						C871.2,347.8,871,347.1,871.8,346.6z"/>
					<path class="st8" d="M872.1,347c0.4-0.3,1.1-0.5,1.2-0.3c0.1,0.2-0.3,0.8-0.7,1.1c-0.4,0.3-0.6,0.1-0.8-0.1
						C871.8,347.6,871.7,347.3,872.1,347z"/>
				</g>
				<g>
					<path class="st6" d="M881.9,388.3c-0.1-1.3,0.6-3.2,1.4-3.2c0.8-0.1,1.9,1.7,2,3.1c0.1,1.3-0.7,1.7-1.5,1.7
						C882.9,389.9,882,389.6,881.9,388.3z"/>
					<path class="st7" d="M882.3,388.2c-0.1-1,0.4-2.3,1-2.4c0.6-0.1,1.4,1.3,1.4,2.2c0.1,1-0.5,1.2-1.1,1.3
						C883,389.4,882.3,389.2,882.3,388.2z"/>
					<path class="st8" d="M882.8,388.2c0-0.5,0.2-1.2,0.4-1.2c0.2,0,0.6,0.7,0.6,1.2c0,0.5-0.2,0.6-0.5,0.6S882.9,388.7,882.8,388.2
						z"/>
				</g>
				<g>
					<path class="st6" d="M865.4,361.5c-0.7,1.1-2.4,2.2-3.1,1.8c-0.7-0.4-0.5-2.5,0.2-3.6c0.7-1.1,1.6-0.9,2.3-0.5
						C865.5,359.5,866.1,360.3,865.4,361.5z"/>
					<path class="st7" d="M865,361.3c-0.5,0.8-1.7,1.6-2.2,1.3c-0.5-0.3-0.3-1.8,0.2-2.7c0.5-0.8,1.1-0.7,1.7-0.4
						C865.1,359.9,865.5,360.5,865,361.3z"/>
					<path class="st8" d="M864.6,361c-0.3,0.4-0.8,0.9-1,0.7c-0.2-0.1-0.1-0.9,0.2-1.3c0.3-0.4,0.5-0.4,0.7-0.2
						C864.7,360.3,864.8,360.6,864.6,361z"/>
				</g>
				<g>
					<path class="st6" d="M875,333.3c0.3,1.3-0.1,3.2-0.9,3.4c-0.8,0.2-2.1-1.4-2.4-2.7c-0.3-1.3,0.5-1.8,1.3-1.9
						C873.7,331.9,874.6,332.1,875,333.3z"/>
					<path class="st7" d="M874.6,333.5c0.2,0.9-0.1,2.4-0.7,2.5c-0.6,0.1-1.5-1-1.8-2c-0.2-0.9,0.3-1.3,0.9-1.4
						C873.7,332.4,874.4,332.5,874.6,333.5z"/>
					<path class="st8" d="M874.1,333.6c0.1,0.5,0,1.2-0.2,1.3c-0.2,0.1-0.7-0.6-0.8-1c-0.1-0.5,0.1-0.6,0.4-0.7
						C873.6,333,873.9,333.1,874.1,333.6z"/>
				</g>
				<g>
					<path class="st6" d="M962.7,322.2c-1.3-0.4-2.7-1.8-2.4-2.6c0.3-0.8,2.3-1,3.6-0.6c1.3,0.4,1.2,1.3,1,2.1
						C964.6,321.8,963.9,322.6,962.7,322.2z"/>
					<path class="st7" d="M962.8,321.8c-0.9-0.3-2-1.3-1.8-1.9c0.2-0.6,1.7-0.8,2.6-0.5c0.9,0.3,0.9,1,0.7,1.5
						C964.1,321.6,963.7,322.1,962.8,321.8z"/>
					<path class="st8" d="M962.9,321.3c-0.5-0.2-1-0.6-0.9-0.8c0.1-0.2,0.8-0.3,1.3-0.1c0.5,0.2,0.5,0.4,0.4,0.7
						C963.6,321.2,963.4,321.4,962.9,321.3z"/>
				</g>
				<g>
					<path class="st6" d="M914.8,317.2c1.2,0.6,2.4,2.1,2.1,2.9c-0.3,0.7-2.4,0.7-3.6,0.2c-1.2-0.6-1.1-1.5-0.7-2.2
						C912.9,317.3,913.6,316.6,914.8,317.2z"/>
					<path class="st7" d="M914.7,317.5c0.9,0.4,1.8,1.5,1.5,2.1c-0.3,0.5-1.8,0.5-2.7,0.1c-0.9-0.4-0.8-1.1-0.5-1.6
						C913.3,317.6,913.8,317.1,914.7,317.5z"/>
					<path class="st8" d="M914.4,318c0.5,0.2,0.9,0.7,0.8,1c-0.1,0.2-0.9,0.2-1.3,0c-0.5-0.2-0.4-0.5-0.3-0.7
						C913.8,318,914,317.8,914.4,318z"/>
				</g>
				<g>
					<path class="st6" d="M893.2,311.1c1.3-0.1,3.1,0.7,3.2,1.5c0.1,0.8-1.8,1.8-3.1,1.9s-1.6-0.8-1.7-1.6
						C891.6,312.1,891.9,311.2,893.2,311.1z"/>
					<path class="st7" d="M893.3,311.4c1-0.1,2.3,0.5,2.3,1.1c0,0.6-1.3,1.3-2.3,1.4c-1,0.1-1.2-0.6-1.2-1.2
						C892.1,312.2,892.3,311.5,893.3,311.4z"/>
					<path class="st8" d="M893.3,312c0.5,0,1.2,0.2,1.2,0.4c0,0.2-0.7,0.6-1.2,0.6c-0.5,0-0.6-0.2-0.6-0.5
						C892.7,312.3,892.8,312,893.3,312z"/>
				</g>
				<g>
					<path class="st6" d="M887.1,416.9c1.1,0.8,2,2.5,1.5,3.2c-0.5,0.7-2.5,0.3-3.6-0.5c-1.1-0.8-0.8-1.6-0.3-2.3
						C885.2,416.6,886,416.1,887.1,416.9z"/>
					<path class="st7" d="M886.9,417.2c0.8,0.6,1.5,1.8,1.1,2.3c-0.3,0.5-1.8,0.2-2.6-0.4c-0.8-0.6-0.6-1.2-0.2-1.7
						C885.5,417,886.1,416.6,886.9,417.2z"/>
					<path class="st8" d="M886.6,417.7c0.4,0.3,0.8,0.9,0.6,1.1c-0.1,0.2-0.9,0-1.3-0.3c-0.4-0.3-0.3-0.6-0.2-0.8
						C885.9,417.5,886.2,417.4,886.6,417.7z"/>
				</g>
				<g>
					<path class="st6" d="M895.8,424.2c-0.5-1.2-0.2-3.2,0.5-3.5c0.8-0.3,2.2,1.2,2.7,2.4c0.5,1.2-0.3,1.8-1,2.1
						C897.2,425.5,896.2,425.5,895.8,424.2z"/>
					<path class="st7" d="M896.1,424.1c-0.3-0.9-0.2-2.3,0.4-2.6c0.6-0.2,1.6,0.9,2,1.8c0.3,0.9-0.2,1.3-0.8,1.5
						C897.1,425,896.4,425,896.1,424.1z"/>
					<path class="st8" d="M896.6,423.9c-0.2-0.5-0.2-1.2,0.1-1.3c0.2-0.1,0.7,0.5,0.9,1c0.2,0.5,0,0.7-0.3,0.7
						C897.1,424.4,896.8,424.4,896.6,423.9z"/>
				</g>
				<g>
					<path class="st6" d="M870.8,423.7c1.3-0.1,3.2,0.6,3.2,1.4c0.1,0.8-1.7,1.9-3,2c-1.3,0.1-1.7-0.7-1.7-1.5
						S869.5,423.8,870.8,423.7z"/>
					<path class="st7" d="M870.9,424c1-0.1,2.3,0.4,2.4,1c0.1,0.6-1.3,1.4-2.2,1.5c-1,0.1-1.2-0.5-1.3-1.1
						C869.7,424.8,869.9,424.1,870.9,424z"/>
					<path class="st8" d="M870.9,424.6c0.5,0,1.2,0.2,1.2,0.4c0,0.2-0.7,0.6-1.2,0.6c-0.5,0-0.6-0.2-0.6-0.5
						C870.3,424.9,870.4,424.6,870.9,424.6z"/>
				</g>
				<g>
					<path class="st6" d="M966.2,402.6c-0.5-1.2-0.4-3.2,0.3-3.5c0.7-0.3,2.3,1,2.9,2.3c0.5,1.2-0.2,1.8-0.9,2.1
						C967.7,403.8,966.7,403.8,966.2,402.6z"/>
					<path class="st7" d="M966.5,402.4c-0.4-0.9-0.3-2.3,0.2-2.6c0.5-0.2,1.7,0.8,2.1,1.6c0.4,0.9-0.1,1.3-0.7,1.6
						C967.6,403.3,966.9,403.3,966.5,402.4z"/>
					<path class="st8" d="M967,402.2c-0.2-0.5-0.2-1.2,0-1.3c0.2-0.1,0.8,0.4,1,0.9c0.2,0.5,0,0.7-0.2,0.8
						C967.5,402.7,967.2,402.7,967,402.2z"/>
				</g>
				<g>
					<path class="st6" d="M998.4,420.2c-1.2-0.5-2.6-1.9-2.3-2.7s2.4-0.9,3.6-0.5c1.2,0.5,1.2,1.4,0.9,2.1
						C1000.3,420,999.7,420.7,998.4,420.2z"/>
					<path class="st7" d="M998.5,419.9c-0.9-0.3-1.9-1.4-1.7-2c0.2-0.6,1.7-0.7,2.6-0.3c0.9,0.3,0.9,1,0.6,1.6
						C999.9,419.7,999.4,420.2,998.5,419.9z"/>
					<path class="st8" d="M998.7,419.3c-0.5-0.2-1-0.7-0.9-0.9c0.1-0.2,0.8-0.2,1.3-0.1c0.5,0.2,0.5,0.5,0.4,0.7
						C999.4,419.3,999.2,419.5,998.7,419.3z"/>
				</g>
				<g>
					<path class="st6" d="M947.5,373.1c0.8,1.1,1.1,3,0.4,3.5c-0.7,0.5-2.5-0.5-3.3-1.6c-0.8-1.1-0.2-1.8,0.4-2.3
						C945.8,372.2,946.7,372,947.5,373.1z"/>
					<path class="st7" d="M947.2,373.3c0.6,0.8,0.8,2.2,0.3,2.6c-0.5,0.4-1.8-0.4-2.4-1.2c-0.6-0.8-0.2-1.3,0.3-1.7
						C945.9,372.7,946.6,372.6,947.2,373.3z"/>
					<path class="st8" d="M946.7,373.7c0.3,0.4,0.5,1.1,0.3,1.2c-0.2,0.1-0.8-0.3-1.1-0.7c-0.3-0.4-0.1-0.6,0.1-0.8
						C946.1,373.3,946.4,373.2,946.7,373.7z"/>
				</g>
				<g>
					<path class="st6" d="M935.7,372.2c0.7,1.1,0.8,3.1,0.1,3.5c-0.7,0.4-2.4-0.7-3.1-1.9c-0.7-1.1-0.1-1.8,0.6-2.2
						C934,371.2,935,371,935.7,372.2z"/>
					<path class="st7" d="M935.4,372.4c0.5,0.8,0.6,2.3,0.1,2.6c-0.5,0.3-1.8-0.5-2.3-1.4c-0.5-0.8-0.1-1.3,0.5-1.6
						C934.2,371.7,934.9,371.6,935.4,372.4z"/>
					<path class="st8" d="M934.9,372.7c0.3,0.4,0.4,1.1,0.2,1.3c-0.2,0.1-0.8-0.3-1.1-0.8c-0.3-0.4-0.1-0.6,0.1-0.8
						C934.3,372.3,934.7,372.2,934.9,372.7z"/>
				</g>
				<g>
					<path class="st6" d="M914.1,411.4c-0.2-1.3,0.3-3.2,1.1-3.3c0.8-0.1,2,1.6,2.2,2.9c0.2,1.3-0.6,1.7-1.4,1.9
						C915.3,412.9,914.3,412.7,914.1,411.4z"/>
					<path class="st7" d="M914.5,411.3c-0.2-1,0.2-2.3,0.8-2.4c0.6-0.1,1.5,1.1,1.6,2.1c0.2,1-0.4,1.3-1,1.4
						C915.3,412.4,914.6,412.2,914.5,411.3z"/>
					<path class="st8" d="M915,411.2c-0.1-0.5,0.1-1.2,0.3-1.2c0.2,0,0.6,0.6,0.7,1.1c0.1,0.5-0.2,0.6-0.4,0.7
						C915.4,411.8,915.1,411.7,915,411.2z"/>
				</g>
				<g>
					<path class="st6" d="M928,440c1.3,0.1,3,1,3,1.8c0,0.8-2,1.6-3.3,1.6c-1.3-0.1-1.5-0.9-1.5-1.8C926.3,440.9,926.7,440,928,440z
						"/>
					<path class="st7" d="M928.1,440.4c1,0,2.2,0.7,2.2,1.3c0,0.6-1.4,1.2-2.4,1.1c-1,0-1.1-0.7-1.1-1.3
						C926.8,441,927.1,440.4,928.1,440.4z"/>
					<path class="st8" d="M928,441c0.5,0,1.1,0.3,1.1,0.6c0,0.2-0.7,0.5-1.2,0.5c-0.5,0-0.6-0.3-0.6-0.5
						C927.4,441.2,927.5,440.9,928,441z"/>
				</g>
				<g>
					<path class="st6" d="M972.3,455.9c-1.3-0.1-3-1.2-2.9-2c0.1-0.8,2-1.5,3.4-1.4c1.3,0.1,1.5,1,1.4,1.8
						C974,455.2,973.6,456,972.3,455.9z"/>
					<path class="st7" d="M972.3,455.5c-1-0.1-2.2-0.9-2.1-1.5c0.1-0.6,1.5-1.1,2.5-1c1,0.1,1.1,0.7,1,1.3S973.2,455.6,972.3,455.5z
						"/>
					<path class="st8" d="M972.3,455c-0.5,0-1.1-0.4-1.1-0.6c0-0.2,0.8-0.4,1.3-0.4c0.5,0,0.6,0.3,0.5,0.6
						C973,454.8,972.8,455,972.3,455z"/>
				</g>
				<g>
					<path class="st6" d="M949.5,447.7c1.2,0.6,2.3,2.2,1.9,2.9c-0.4,0.7-2.5,0.6-3.6,0c-1.2-0.6-1-1.5-0.6-2.2
						C947.6,447.7,948.4,447.1,949.5,447.7z"/>
					<path class="st7" d="M949.4,448.1c0.9,0.5,1.7,1.6,1.4,2.2c-0.3,0.5-1.8,0.5-2.7,0c-0.9-0.5-0.7-1.1-0.5-1.6
						C948,448.1,948.5,447.6,949.4,448.1z"/>
					<path class="st8" d="M949.1,448.6c0.4,0.2,0.9,0.8,0.8,1c-0.1,0.2-0.9,0.1-1.3-0.1c-0.4-0.2-0.4-0.5-0.3-0.7
						C948.4,448.5,948.7,448.3,949.1,448.6z"/>
				</g>
				<g>
					<path class="st6" d="M956.1,458.4c0.4-1.3,1.7-2.7,2.5-2.5c0.8,0.2,1.1,2.3,0.8,3.6c-0.4,1.3-1.3,1.3-2.1,1.1
						C956.5,460.3,955.7,459.7,956.1,458.4z"/>
					<path class="st7" d="M956.5,458.5c0.3-0.9,1.2-2,1.8-1.8c0.6,0.2,0.8,1.7,0.6,2.6c-0.3,0.9-0.9,0.9-1.5,0.8
						C956.7,459.9,956.2,459.4,956.5,458.5z"/>
					<path class="st8" d="M957,458.7c0.1-0.5,0.6-1,0.8-1c0.2,0.1,0.3,0.8,0.2,1.3c-0.1,0.5-0.4,0.5-0.7,0.4
						C957.1,459.4,956.8,459.2,957,458.7z"/>
				</g>
				<g>
					<path class="st6" d="M1022.1,420.2c-0.7,1.2-2.3,2.2-3,1.8c-0.7-0.4-0.5-2.5,0.1-3.6c0.7-1.2,1.5-0.9,2.3-0.5
						C1022.2,418.2,1022.8,419,1022.1,420.2z"/>
					<path class="st7" d="M1021.8,420c-0.5,0.8-1.7,1.6-2.2,1.3c-0.5-0.3-0.4-1.8,0.1-2.7c0.5-0.8,1.1-0.7,1.6-0.4
						C1021.8,418.6,1022.3,419.2,1021.8,420z"/>
					<path class="st8" d="M1021.3,419.7c-0.2,0.4-0.8,0.9-1,0.8c-0.2-0.1-0.1-0.9,0.2-1.3c0.2-0.4,0.5-0.4,0.7-0.3
						C1021.4,419,1021.6,419.3,1021.3,419.7z"/>
				</g>
				<g>
					<path class="st6" d="M1035.4,429.7c-0.8-1.1-1.2-3-0.5-3.5c0.6-0.5,2.5,0.5,3.3,1.5c0.8,1.1,0.3,1.8-0.4,2.3
						C1037.2,430.5,1036.2,430.8,1035.4,429.7z"/>
					<path class="st7" d="M1035.7,429.5c-0.6-0.8-0.9-2.2-0.4-2.6c0.5-0.4,1.8,0.3,2.4,1.1c0.6,0.8,0.2,1.3-0.3,1.7
						C1037,430.1,1036.3,430.2,1035.7,429.5z"/>
					<path class="st8" d="M1036.2,429.2c-0.3-0.4-0.5-1.1-0.3-1.2c0.2-0.1,0.8,0.3,1.1,0.6c0.3,0.4,0.2,0.6,0,0.8
						C1036.8,429.5,1036.5,429.5,1036.2,429.2z"/>
				</g>
				<g>
					<path class="st6" d="M982.9,296.8c0.7,1.1,1,3.1,0.3,3.5c-0.7,0.5-2.5-0.6-3.2-1.7s-0.2-1.8,0.5-2.3
						C981.2,295.9,982.1,295.7,982.9,296.8z"/>
					<path class="st7" d="M982.6,297.1c0.5,0.8,0.7,2.2,0.2,2.6c-0.5,0.3-1.8-0.4-2.4-1.2c-0.5-0.8-0.1-1.3,0.4-1.7
						C981.3,296.4,982,296.3,982.6,297.1z"/>
					<path class="st8" d="M982.1,297.4c0.3,0.4,0.4,1.1,0.2,1.2c-0.2,0.1-0.8-0.3-1.1-0.7s-0.1-0.6,0.1-0.8
						C981.5,297,981.8,297,982.1,297.4z"/>
				</g>
				<g>
					<path class="st6" d="M959.3,333.1c-0.6,1.2-2.2,2.4-2.9,2c-0.7-0.4-0.7-2.4-0.1-3.6c0.6-1.2,1.5-1,2.2-0.7
						C959.3,331.2,959.9,331.9,959.3,333.1z"/>
					<path class="st7" d="M958.9,333c-0.4,0.9-1.6,1.7-2.1,1.5c-0.5-0.3-0.5-1.8-0.1-2.7c0.4-0.9,1.1-0.8,1.6-0.5
						C958.9,331.6,959.4,332.1,958.9,333z"/>
					<path class="st8" d="M958.5,332.7c-0.2,0.4-0.8,0.9-1,0.8c-0.2-0.1-0.1-0.9,0.1-1.3c0.2-0.4,0.5-0.4,0.7-0.3
						S958.7,332.2,958.5,332.7z"/>
				</g>
				<g>
					<path class="st6" d="M997.3,298c1,0.8,2,2.5,1.5,3c-0.4,0.5-2.4,0-3.4-0.9c-1-0.8-0.8-1.6-0.4-2.1
						C995.4,297.5,996.2,297.1,997.3,298z"/>
					<path class="st7" d="M997.1,298c0.8,0.6,1.5,1.9,1.2,2.3c-0.3,0.4-1.8,0-2.6-0.7c-0.8-0.6-0.6-1.2-0.3-1.6
						S996.3,297.3,997.1,298z"/>
					<path class="st8" d="M996.9,298.2c0.4,0.3,0.7,0.8,0.6,1c-0.1,0.2-0.8-0.1-1.1-0.3c-0.4-0.3-0.3-0.5-0.2-0.7
						C996.3,298,996.5,297.9,996.9,298.2z"/>
				</g>
				<g>
					<path class="st6" d="M1042,347.6c-0.9-1-1.5-2.8-1-3.3c0.5-0.5,2.3,0.5,3.2,1.5c0.9,1,0.5,1.7,0,2.1
						C1043.7,348.4,1042.9,348.6,1042,347.6z"/>
					<path class="st7" d="M1042.2,347.7c-0.7-0.8-1.1-2.2-0.7-2.5c0.4-0.3,1.8,0.4,2.5,1.1c0.7,0.8,0.4,1.3,0,1.6
						C1043.5,348.3,1042.8,348.4,1042.2,347.7z"/>
					<path class="st8" d="M1042.4,347.4c-0.3-0.3-0.5-0.9-0.4-1.1c0.2-0.1,0.7,0.2,1,0.5c0.3,0.3,0.2,0.6,0,0.7
						C1043,347.7,1042.7,347.8,1042.4,347.4z"/>
				</g>
				<g>
					<path class="st6" d="M1033.7,417.7c0.2-1.3,1.2-2.9,1.9-2.8c0.7,0.1,1.1,2.1,0.9,3.4s-1,1.5-1.6,1.4
						C1034.2,419.5,1033.5,419.1,1033.7,417.7z"/>
					<path class="st7" d="M1033.7,417.9c0.2-1,0.9-2.3,1.4-2.2c0.5,0.1,0.9,1.6,0.7,2.6c-0.2,1-0.7,1.1-1.3,1
						C1034.1,419.3,1033.6,418.9,1033.7,417.9z"/>
					<path class="st8" d="M1034.1,417.9c0.1-0.4,0.4-1,0.6-1c0.2,0,0.3,0.7,0.3,1.2c-0.1,0.4-0.3,0.5-0.5,0.5
						C1034.2,418.6,1034,418.4,1034.1,417.9z"/>
				</g>
				<g>
					<path class="st6" d="M1050.2,384.3c0.6,1.2,0.7,3.1,0.1,3.4c-0.6,0.3-2.1-1-2.7-2.2c-0.6-1.2,0-1.7,0.6-2.1
						S1049.6,383.1,1050.2,384.3z"/>
					<path class="st7" d="M1050,384.2c0.5,0.9,0.5,2.4,0.1,2.6c-0.5,0.2-1.6-0.8-2.1-1.7c-0.5-0.9,0-1.3,0.4-1.6
						S1049.6,383.3,1050,384.2z"/>
					<path class="st8" d="M1049.7,384.4c0.2,0.4,0.3,1,0.1,1.1c-0.2,0.1-0.7-0.4-0.9-0.8c-0.2-0.4,0-0.6,0.1-0.7
						C1049.3,384,1049.5,384,1049.7,384.4z"/>
				</g>
				<g>
					<path class="st6" d="M935.7,458.1c0.8-1.1,2.5-2,3-1.6c0.5,0.4,0,2.4-0.8,3.4c-0.8,1.1-1.6,0.8-2.1,0.4
						C935.3,459.9,934.9,459.2,935.7,458.1z"/>
					<path class="st7" d="M935.7,458.3c0.6-0.8,1.9-1.5,2.3-1.2c0.4,0.3,0,1.8-0.6,2.6s-1.2,0.6-1.6,0.3
						C935.4,459.7,935.1,459.1,935.7,458.3z"/>
					<path class="st8" d="M935.9,458.5c0.3-0.4,0.8-0.7,1-0.6c0.2,0.1-0.1,0.8-0.3,1.1c-0.3,0.4-0.5,0.3-0.7,0.2
						C935.8,459.1,935.7,458.9,935.9,458.5z"/>
				</g>
				<g>
					<path class="st6" d="M1041.4,390.9c-0.8,1-2.5,1.9-3.1,1.5c-0.5-0.4,0.1-2.4,0.9-3.4s1.6-0.8,2.1-0.3
						C1041.9,389.1,1042.3,389.8,1041.4,390.9z"/>
					<path class="st7" d="M1041.4,390.7c-0.6,0.8-1.9,1.5-2.3,1.2c-0.4-0.3,0-1.8,0.7-2.6s1.2-0.6,1.6-0.3
						C1041.8,389.3,1042.1,389.9,1041.4,390.7z"/>
					<path class="st8" d="M1041.2,390.5c-0.3,0.4-0.8,0.7-1,0.6c-0.2-0.1,0.1-0.8,0.4-1.1c0.3-0.4,0.5-0.3,0.7-0.2
						C1041.4,389.9,1041.5,390.1,1041.2,390.5z"/>
				</g>
				<g>
					<path class="st6" d="M962.1,340.7c1.2,0.5,2.5,1.9,2.2,2.6s-2.3,0.6-3.5,0s-1.2-1.3-0.9-1.9S960.9,340.2,962.1,340.7z"/>
					<path class="st7" d="M962,340.7c0.9,0.4,1.9,1.5,1.7,2c-0.2,0.5-1.8,0.4-2.7,0c-0.9-0.4-0.9-1-0.7-1.5
						C960.5,340.7,961,340.3,962,340.7z"/>
					<path class="st8" d="M961.8,341c0.4,0.2,0.9,0.6,0.8,0.8c-0.1,0.2-0.8,0.1-1.2,0c-0.4-0.2-0.4-0.4-0.3-0.6
						C961.2,341,961.4,340.8,961.8,341z"/>
				</g>
				<g>
					<path class="st6" d="M936.6,303c0.6,1.2,0.6,3.1,0,3.4c-0.6,0.3-2.1-1.1-2.7-2.3c-0.6-1.2,0-1.7,0.6-2
						C935.2,301.8,936.1,301.8,936.6,303z"/>
					<path class="st7" d="M936.5,302.9c0.4,0.9,0.5,2.4,0,2.6c-0.5,0.2-1.6-0.8-2.1-1.8c-0.4-0.9,0-1.3,0.5-1.6
						C935.4,302,936,302,936.5,302.9z"/>
					<path class="st8" d="M936.2,303c0.2,0.4,0.2,1.1,0.1,1.1c-0.2,0.1-0.7-0.4-0.9-0.8c-0.2-0.4,0-0.6,0.2-0.7
						C935.7,302.6,936,302.6,936.2,303z"/>
				</g>
				<g>
					<path class="st6" d="M988.8,409c-0.6-1.2-0.8-3.1-0.1-3.4c0.6-0.3,2.1,1,2.7,2.2c0.6,1.2,0.1,1.7-0.5,2.1
						C990.3,410.2,989.4,410.2,988.8,409z"/>
					<path class="st7" d="M989,409.1c-0.5-0.9-0.6-2.4-0.1-2.6c0.5-0.2,1.6,0.8,2.1,1.7c0.5,0.9,0.1,1.3-0.4,1.6
						C990.1,410,989.5,410,989,409.1z"/>
					<path class="st8" d="M989.3,409c-0.2-0.4-0.3-1-0.1-1.1c0.2-0.1,0.7,0.4,0.9,0.8c0.2,0.4,0.1,0.6-0.1,0.7
						C989.8,409.4,989.5,409.4,989.3,409z"/>
				</g>
				<g>
					<path class="st6" d="M908.4,444.2c1.1-0.7,3-1,3.4-0.5c0.4,0.6-0.8,2.2-1.9,2.9c-1.1,0.7-1.7,0.2-2.1-0.3
						C907.4,445.7,907.3,444.9,908.4,444.2z"/>
					<path class="st7" d="M908.4,444.4c0.9-0.6,2.3-0.8,2.6-0.4c0.3,0.4-0.6,1.7-1.5,2.3c-0.9,0.6-1.3,0.2-1.6-0.3
						C907.6,445.6,907.5,444.9,908.4,444.4z"/>
					<path class="st8" d="M908.5,444.6c0.4-0.2,1-0.4,1.1-0.2c0.1,0.2-0.3,0.7-0.7,1s-0.6,0.1-0.7-0.1
						C908.2,445.1,908.2,444.9,908.5,444.6z"/>
				</g>
				<g>
					<path class="st6" d="M892,348c0.3,1.3,0.1,3.2-0.6,3.4c-0.7,0.2-1.9-1.4-2.2-2.7c-0.3-1.3,0.3-1.7,1-1.9
						C890.8,346.5,891.7,346.7,892,348z"/>
					<path class="st7" d="M891.9,347.8c0.3,1,0.1,2.4-0.4,2.6c-0.5,0.1-1.4-1.1-1.7-2.1c-0.3-1,0.2-1.3,0.7-1.5
						C890.9,346.7,891.6,346.9,891.9,347.8z"/>
					<path class="st8" d="M891.6,347.9c0.1,0.4,0.1,1.1-0.1,1.1c-0.2,0.1-0.6-0.5-0.7-0.9c-0.1-0.4,0.1-0.6,0.3-0.6
						C891.2,347.4,891.4,347.5,891.6,347.9z"/>
				</g>
				<g>
					<path class="st6" d="M920.9,326.4c-1,0.9-2.8,1.5-3.3,0.9c-0.4-0.5,0.5-2.3,1.5-3.2c1-0.9,1.7-0.5,2.1,0
						C921.7,324.7,922,325.5,920.9,326.4z"/>
					<path class="st7" d="M921,326.2c-0.8,0.7-2.2,1.1-2.5,0.7c-0.3-0.4,0.4-1.8,1.2-2.4c0.8-0.7,1.3-0.4,1.6,0
						C921.6,324.9,921.8,325.5,921,326.2z"/>
					<path class="st8" d="M920.8,326c-0.3,0.3-0.9,0.5-1.1,0.4c-0.1-0.2,0.2-0.7,0.6-1c0.3-0.3,0.6-0.2,0.7,0
						C921.1,325.4,921.1,325.7,920.8,326z"/>
				</g>
				<g>
					<path class="st6" d="M1037.9,362.1c-1.3-0.3-2.8-1.5-2.6-2.2c0.2-0.7,2.2-0.9,3.5-0.6c1.3,0.3,1.3,1.1,1.2,1.8
						C1039.8,361.8,1039.2,362.4,1037.9,362.1z"/>
					<path class="st7" d="M1038.1,362c-1-0.3-2.2-1.2-2-1.7c0.1-0.5,1.7-0.7,2.7-0.4s1,0.9,0.9,1.4
						C1039.5,361.8,1039.1,362.3,1038.1,362z"/>
					<path class="st8" d="M1038.2,361.7c-0.4-0.1-1-0.5-0.9-0.7s0.7-0.3,1.2-0.1c0.4,0.1,0.5,0.4,0.4,0.6S1038.6,361.8,1038.2,361.7
						z"/>
				</g>
				<g>
					<path class="st6" d="M1049.2,399c-0.4-1.3-0.1-3.2,0.5-3.4c0.7-0.2,1.9,1.4,2.3,2.7s-0.3,1.7-0.9,1.9
						C1050.4,400.4,1049.5,400.2,1049.2,399z"/>
					<path class="st7" d="M1049.3,399.1c-0.3-1-0.1-2.4,0.4-2.6c0.5-0.1,1.5,1.1,1.7,2.1c0.3,1-0.2,1.3-0.7,1.5
						C1050.2,400.2,1049.6,400.1,1049.3,399.1z"/>
					<path class="st8" d="M1049.6,399c-0.1-0.4-0.1-1.1,0.1-1.1c0.2-0.1,0.6,0.5,0.7,0.9c0.1,0.4-0.1,0.6-0.3,0.6
						C1050,399.5,1049.7,399.4,1049.6,399z"/>
				</g>
				<g>
					<path class="st6" d="M1025.5,398.9c-1-0.8-2-2.5-1.6-3c0.4-0.5,2.4,0,3.4,0.8c1.1,0.8,0.8,1.6,0.4,2.1
						C1027.3,399.3,1026.6,399.7,1025.5,398.9z"/>
					<path class="st7" d="M1025.7,398.9c-0.8-0.6-1.5-1.9-1.2-2.3c0.3-0.4,1.8,0,2.6,0.6c0.8,0.6,0.6,1.2,0.3,1.6
						C1027.1,399.2,1026.5,399.5,1025.7,398.9z"/>
					<path class="st8" d="M1025.9,398.6c-0.4-0.3-0.7-0.8-0.6-1c0.1-0.2,0.8,0.1,1.1,0.3c0.4,0.3,0.3,0.5,0.2,0.7
						C1026.5,398.8,1026.3,398.9,1025.9,398.6z"/>
				</g>
				<g>
					<path class="st6" d="M963.1,437.1c1.3-0.3,3.2,0,3.3,0.7c0.2,0.7-1.5,1.8-2.8,2.1c-1.3,0.3-1.7-0.4-1.9-1
						S961.8,437.4,963.1,437.1z"/>
					<path class="st7" d="M962.9,437.3c1-0.2,2.4,0,2.6,0.5c0.1,0.5-1.2,1.4-2.2,1.6c-1,0.2-1.3-0.3-1.4-0.8
						C961.8,438.1,962,437.5,962.9,437.3z"/>
					<path class="st8" d="M963,437.6c0.4-0.1,1.1,0,1.1,0.2c0,0.2-0.5,0.6-1,0.7c-0.4,0.1-0.6-0.1-0.6-0.3
						C962.5,437.9,962.6,437.7,963,437.6z"/>
				</g>
				<g>
					<path class="st6" d="M882.4,422.2c1.3,0.3,2.9,1.3,2.7,2c-0.1,0.7-2.1,1-3.4,0.8c-1.3-0.3-1.4-1-1.3-1.7
						C880.6,422.6,881.1,422,882.4,422.2z"/>
					<path class="st7" d="M882.3,422.3c1,0.2,2.2,1,2.1,1.5c-0.1,0.5-1.6,0.8-2.6,0.6c-1-0.2-1.1-0.8-1-1.3
						C880.9,422.6,881.3,422.1,882.3,422.3z"/>
					<path class="st8" d="M882.2,422.6c0.4,0.1,1,0.4,1,0.6s-0.7,0.3-1.2,0.2c-0.4-0.1-0.5-0.3-0.4-0.5
						C881.6,422.7,881.8,422.5,882.2,422.6z"/>
				</g>
				<g>
					<path class="st6" d="M866.4,335.6c0.6,1.2,0.7,3.1,0.1,3.4c-0.6,0.3-2.1-1-2.7-2.2c-0.6-1.2-0.1-1.7,0.5-2.1
						C865,334.4,865.8,334.4,866.4,335.6z"/>
					<path class="st7" d="M866.2,335.5c0.5,0.9,0.6,2.4,0.1,2.6c-0.5,0.2-1.6-0.8-2.1-1.7c-0.5-0.9-0.1-1.3,0.4-1.6
						C865.1,334.6,865.8,334.6,866.2,335.5z"/>
					<path class="st8" d="M866,335.6c0.2,0.4,0.3,1,0.1,1.1c-0.2,0.1-0.7-0.4-0.9-0.8c-0.2-0.4,0-0.6,0.1-0.7
						C865.5,335.2,865.8,335.2,866,335.6z"/>
				</g>
				<g>
					<path class="st6" d="M933.5,361.1c-1.3-0.1-3-1.1-2.9-1.8c0.1-0.7,2-1.2,3.4-1.1c1.3,0.1,1.5,0.9,1.4,1.6
						C935.3,360.5,934.9,361.3,933.5,361.1z"/>
					<path class="st7" d="M933.7,361c-1-0.1-2.3-0.8-2.2-1.4c0.1-0.5,1.6-0.9,2.6-0.8c1,0.1,1.1,0.7,1.1,1.2
						C935.1,360.6,934.7,361.1,933.7,361z"/>
					<path class="st8" d="M933.7,360.7c-0.5-0.1-1-0.3-1-0.5c0-0.2,0.7-0.4,1.1-0.3c0.5,0.1,0.5,0.3,0.5,0.5
						C934.3,360.5,934.2,360.8,933.7,360.7z"/>
				</g>
				<g>
					<path class="st6" d="M984.6,359c-1.3-0.1-3-1-3-1.6c0-0.7,2-1.3,3.3-1.2s1.5,0.8,1.5,1.5C986.3,358.3,985.9,359.1,984.6,359z"
						/>
					<path class="st7" d="M984.8,358.9c-1-0.1-2.3-0.7-2.3-1.3c0-0.5,1.5-1,2.5-0.9c1,0.1,1.2,0.7,1.1,1.2
						C986.1,358.4,985.8,358.9,984.8,358.9z"/>
					<path class="st8" d="M984.8,358.5c-0.5,0-1-0.3-1-0.5c0-0.2,0.7-0.4,1.1-0.4c0.5,0,0.5,0.3,0.5,0.5
						C985.4,358.4,985.2,358.6,984.8,358.5z"/>
				</g>
				<g>
					<path class="st6" d="M1024.7,309.3c-0.6,1.2-2.1,2.4-2.7,2.1c-0.6-0.3-0.4-2.3,0.2-3.5c0.6-1.2,1.4-1.1,2-0.8
						C1024.8,307.5,1025.3,308.1,1024.7,309.3z"/>
					<path class="st7" d="M1024.6,309.1c-0.5,0.9-1.6,1.9-2.1,1.6s-0.3-1.8,0.1-2.7c0.5-0.9,1.1-0.8,1.5-0.6
						C1024.7,307.7,1025.1,308.2,1024.6,309.1z"/>
					<path class="st8" d="M1024.4,309c-0.2,0.4-0.7,0.8-0.9,0.8c-0.2-0.1-0.1-0.8,0.1-1.2c0.2-0.4,0.4-0.4,0.6-0.3
						C1024.4,308.4,1024.6,308.6,1024.4,309z"/>
				</g>
				<g>
					<path class="st6" d="M949.2,312.2c1.2,0.5,2.5,1.9,2.3,2.6c-0.3,0.6-2.3,0.6-3.5,0c-1.2-0.5-1.2-1.3-0.9-1.9
						C947.3,312.2,948,311.6,949.2,312.2z"/>
					<path class="st7" d="M949,312.2c0.9,0.4,1.9,1.5,1.7,2c-0.2,0.5-1.8,0.4-2.7,0c-0.9-0.4-0.9-1-0.7-1.5
						C947.6,312.2,948.1,311.8,949,312.2z"/>
					<path class="st8" d="M948.9,312.5c0.4,0.2,0.9,0.6,0.8,0.8c-0.1,0.2-0.8,0.1-1.2,0s-0.4-0.4-0.3-0.6
						C948.3,312.5,948.5,312.3,948.9,312.5z"/>
				</g>
				<g>
					<path class="st6" d="M954.5,376.5c0.1-1.3,1-3,1.7-2.9c0.7,0.1,1.2,2,1.1,3.3c-0.1,1.3-0.9,1.5-1.6,1.4
						C955.1,378.2,954.3,377.8,954.5,376.5z"/>
					<path class="st7" d="M954.6,376.6c0.1-1,0.8-2.3,1.3-2.3c0.5,0.1,1,1.5,0.9,2.6c-0.1,1-0.7,1.2-1.2,1.1
						C955,378,954.5,377.7,954.6,376.6z"/>
					<path class="st8" d="M954.9,376.7c0-0.5,0.3-1,0.5-1c0.2,0,0.4,0.7,0.3,1.1c0,0.5-0.3,0.5-0.5,0.5
						C955,377.3,954.8,377.1,954.9,376.7z"/>
				</g>
				<g>
					<path class="st6" d="M1007.6,410.2c-1.2-0.5-2.6-1.8-2.4-2.4c0.2-0.6,2.3-0.7,3.5-0.2c1.2,0.5,1.2,1.2,1,1.9
						C1009.5,410.1,1008.9,410.7,1007.6,410.2z"/>
					<path class="st7" d="M1007.8,410.2c-1-0.4-2-1.4-1.9-1.9c0.2-0.5,1.7-0.5,2.7-0.2c1,0.4,1,1,0.8,1.4
						C1009.2,410.1,1008.8,410.5,1007.8,410.2z"/>
					<path class="st8" d="M1007.9,409.9c-0.4-0.2-0.9-0.6-0.8-0.8c0.1-0.2,0.8-0.2,1.2,0c0.4,0.2,0.4,0.4,0.4,0.6
						C1008.5,409.9,1008.3,410,1007.9,409.9z"/>
				</g>
				<g>
					<path class="st6" d="M1038.8,399.8c1.2,0.5,2.6,1.8,2.4,2.5c-0.2,0.6-2.3,0.7-3.5,0.2c-1.2-0.5-1.2-1.3-1-1.9
						C1037,399.9,1037.6,399.3,1038.8,399.8z"/>
					<path class="st7" d="M1038.7,399.9c1,0.4,2,1.4,1.8,1.9c-0.2,0.5-1.7,0.5-2.7,0.1c-1-0.4-0.9-1-0.7-1.5
						C1037.2,399.9,1037.7,399.5,1038.7,399.9z"/>
					<path class="st8" d="M1038.6,400.2c0.4,0.2,0.9,0.6,0.8,0.8c-0.1,0.2-0.8,0.2-1.2,0c-0.4-0.2-0.4-0.4-0.3-0.6
						C1037.9,400.2,1038.1,400,1038.6,400.2z"/>
				</g>
				<g>
					<path class="st6" d="M1010.7,425.9c1.1-0.8,2.9-1.2,3.3-0.7c0.4,0.6-0.7,2.3-1.7,3.1c-1.1,0.8-1.7,0.4-2.1-0.2
						C1009.7,427.5,1009.6,426.7,1010.7,425.9z"/>
					<path class="st7" d="M1010.6,426.1c0.8-0.6,2.3-1,2.6-0.5c0.3,0.4-0.5,1.7-1.3,2.4c-0.8,0.6-1.3,0.3-1.6-0.2
						C1009.9,427.3,1009.8,426.7,1010.6,426.1z"/>
					<path class="st8" d="M1010.8,426.3c0.4-0.3,1-0.4,1.1-0.3c0.1,0.2-0.3,0.7-0.6,1c-0.4,0.3-0.6,0.1-0.7,0
						S1010.4,426.6,1010.8,426.3z"/>
				</g>
				<g>
					<path class="st6" d="M992.8,450.9c0.8-1,2.5-1.9,3.1-1.5c0.5,0.4-0.1,2.4-0.9,3.4c-0.8,1-1.6,0.8-2.1,0.3
						C992.3,452.7,992,451.9,992.8,450.9z"/>
					<path class="st7" d="M992.8,451.1c0.7-0.8,2-1.5,2.4-1.1c0.4,0.3-0.1,1.8-0.7,2.6c-0.7,0.8-1.2,0.6-1.6,0.2
						C992.4,452.5,992.2,451.9,992.8,451.1z"/>
					<path class="st8" d="M993.1,451.3c0.3-0.4,0.8-0.7,1-0.5c0.2,0.1-0.1,0.8-0.4,1.1s-0.5,0.3-0.7,0.1
						C992.9,451.9,992.8,451.6,993.1,451.3z"/>
				</g>
				<g>
					<path class="st6" d="M943.9,354.4c0.6,1.2,0.8,3.1,0.1,3.4c-0.6,0.3-2.1-1-2.7-2.2s-0.1-1.7,0.5-2.1
						C942.4,353.3,943.3,353.2,943.9,354.4z"/>
					<path class="st7" d="M943.7,354.3c0.5,0.9,0.6,2.4,0.1,2.6c-0.5,0.2-1.6-0.8-2.1-1.7c-0.5-0.9-0.1-1.3,0.4-1.6
						C942.6,353.4,943.3,353.4,943.7,354.3z"/>
					<path class="st8" d="M943.5,354.5c0.2,0.4,0.3,1,0.1,1.1c-0.2,0.1-0.7-0.4-0.9-0.8s-0.1-0.6,0.1-0.7
						C943,354.1,943.2,354.1,943.5,354.5z"/>
				</g>
				<g>
					<path class="st6" d="M890.7,333.6c1.3,0.5,2.6,1.8,2.4,2.4c-0.2,0.6-2.3,0.7-3.5,0.3c-1.3-0.5-1.2-1.2-1-1.9
						C888.9,333.8,889.5,333.2,890.7,333.6z"/>
					<path class="st7" d="M890.6,333.7c1,0.3,2,1.4,1.9,1.9s-1.7,0.5-2.7,0.2c-1-0.3-1-1-0.8-1.4
						C889.1,333.8,889.6,333.3,890.6,333.7z"/>
					<path class="st8" d="M890.5,334c0.4,0.2,0.9,0.6,0.8,0.8c-0.1,0.2-0.8,0.2-1.2,0c-0.4-0.2-0.4-0.4-0.4-0.6
						C889.8,334,890,333.8,890.5,334z"/>
				</g>
				<g>
					<path class="st6" d="M870.7,403.5c0.4-1.3,1.6-2.7,2.3-2.5c0.7,0.2,0.8,2.2,0.4,3.5c-0.4,1.3-1.2,1.3-1.8,1.1
						C870.9,405.4,870.3,404.8,870.7,403.5z"/>
					<path class="st7" d="M870.8,403.7c0.3-1,1.3-2.1,1.8-1.9c0.5,0.2,0.6,1.7,0.3,2.7c-0.3,1-0.9,1-1.4,0.8
						S870.5,404.7,870.8,403.7z"/>
					<path class="st8" d="M871.1,403.8c0.1-0.4,0.5-0.9,0.7-0.9c0.2,0.1,0.2,0.7,0.1,1.2c-0.1,0.4-0.4,0.5-0.6,0.4
						S870.9,404.2,871.1,403.8z"/>
				</g>
				<g>
					<path class="st6" d="M864.7,398c1.1-0.7,3-0.9,3.4-0.3c0.3,0.6-0.9,2.2-2.1,2.9c-1.1,0.7-1.7,0.2-2.1-0.4
						C863.7,399.6,863.6,398.7,864.7,398z"/>
					<path class="st7" d="M864.7,398.2c0.9-0.5,2.3-0.7,2.6-0.2s-0.7,1.7-1.6,2.2c-0.9,0.5-1.3,0.1-1.6-0.3
						C863.8,399.4,863.8,398.7,864.7,398.2z"/>
					<path class="st8" d="M864.8,398.5c0.4-0.2,1-0.3,1.1-0.2c0.1,0.2-0.3,0.7-0.7,0.9c-0.4,0.2-0.6,0.1-0.7-0.1
						C864.5,399,864.4,398.7,864.8,398.5z"/>
				</g>
				<g>
					<path class="st6" d="M891.8,405.2c-1.3-0.1-3-1.1-2.9-1.8s2-1.2,3.4-1.1c1.3,0.1,1.5,0.9,1.4,1.6
						C893.6,404.7,893.1,405.4,891.8,405.2z"/>
					<path class="st7" d="M892,405.1c-1-0.1-2.3-0.8-2.2-1.4c0.1-0.5,1.6-0.9,2.6-0.8c1,0.1,1.1,0.7,1.1,1.2
						C893.3,404.7,893,405.3,892,405.1z"/>
					<path class="st8" d="M892,404.8c-0.5-0.1-1-0.3-1-0.5c0-0.2,0.7-0.4,1.1-0.3c0.5,0.1,0.5,0.3,0.5,0.5
						C892.6,404.7,892.5,404.9,892,404.8z"/>
				</g>
				<g>
					<path class="st6" d="M874.5,371.4c0.8,1.1,1.3,2.9,0.8,3.3c-0.5,0.4-2.3-0.6-3.1-1.7s-0.4-1.7,0.2-2.1
						C872.8,370.6,873.7,370.4,874.5,371.4z"/>
					<path class="st7" d="M874.3,371.4c0.6,0.8,1,2.2,0.6,2.6c-0.4,0.3-1.8-0.5-2.4-1.3c-0.6-0.8-0.3-1.3,0.1-1.6
						C873,370.7,873.7,370.6,874.3,371.4z"/>
					<path class="st8" d="M874,371.6c0.3,0.4,0.5,1,0.3,1.1c-0.2,0.1-0.7-0.2-1-0.6c-0.3-0.4-0.2-0.6,0-0.7
						C873.5,371.3,873.8,371.2,874,371.6z"/>
				</g>
				<g>
					<path class="st6" d="M882.5,375.8c-1.2-0.6-2.5-2-2.2-2.6c0.3-0.6,2.3-0.5,3.5,0.1c1.2,0.6,1.1,1.4,0.8,2
						C884.4,375.9,883.7,376.4,882.5,375.8z"/>
					<path class="st7" d="M882.7,375.8c-0.9-0.4-1.9-1.5-1.7-2c0.2-0.5,1.8-0.4,2.7,0.1c0.9,0.4,0.9,1,0.6,1.5
						C884.1,375.8,883.6,376.2,882.7,375.8z"/>
					<path class="st8" d="M882.8,375.5c-0.4-0.2-0.9-0.7-0.8-0.8c0.1-0.2,0.8-0.1,1.2,0.1c0.4,0.2,0.4,0.4,0.3,0.6
						C883.4,375.5,883.2,375.7,882.8,375.5z"/>
				</g>
				<g>
					<path class="st6" d="M863.2,372.6c1.1-0.8,2.9-1.2,3.3-0.7c0.4,0.6-0.7,2.3-1.7,3.1c-1.1,0.8-1.7,0.3-2.1-0.2
						C862.3,374.2,862.1,373.4,863.2,372.6z"/>
					<path class="st7" d="M863.1,372.8c0.8-0.6,2.3-0.9,2.6-0.5c0.3,0.4-0.5,1.7-1.3,2.4c-0.8,0.6-1.3,0.3-1.6-0.2
						C862.4,374,862.3,373.4,863.1,372.8z"/>
					<path class="st8" d="M863.3,373c0.4-0.3,1-0.4,1.1-0.3c0.1,0.2-0.3,0.7-0.6,1c-0.4,0.3-0.6,0.1-0.7,0
						C863,373.5,863,373.3,863.3,373z"/>
				</g>
				<g>
					<path class="st6" d="M954,365.2c-1.3,0.4-3.2,0.3-3.4-0.3c-0.2-0.6,1.3-2,2.6-2.4c1.3-0.4,1.7,0.2,2,0.8
						C955.4,363.9,955.3,364.8,954,365.2z"/>
					<path class="st7" d="M954.1,365.1c-1,0.3-2.4,0.2-2.6-0.3c-0.2-0.5,1-1.5,2-1.9c1-0.3,1.3,0.1,1.5,0.6
						C955.2,364.1,955.1,364.7,954.1,365.1z"/>
					<path class="st8" d="M954,364.8c-0.4,0.1-1.1,0.1-1.1-0.1c-0.1-0.2,0.5-0.6,0.9-0.8c0.4-0.1,0.6,0,0.7,0.2
						C954.5,364.4,954.4,364.6,954,364.8z"/>
				</g>
				<g>
					<path class="st6" d="M945.3,329.4c0.6,1.2,0.8,3.1,0.2,3.4c-0.6,0.3-2.1-1-2.8-2.2c-0.6-1.2-0.1-1.7,0.5-2.1
						C943.9,328.2,944.7,328.2,945.3,329.4z"/>
					<path class="st7" d="M945.2,329.3c0.5,0.9,0.6,2.4,0.1,2.6c-0.5,0.2-1.7-0.8-2.1-1.7c-0.5-0.9-0.1-1.3,0.4-1.6
						C944,328.4,944.7,328.4,945.2,329.3z"/>
					<path class="st8" d="M944.9,329.5c0.2,0.4,0.3,1,0.1,1.1c-0.2,0.1-0.7-0.4-0.9-0.8c-0.2-0.4-0.1-0.6,0.1-0.7
						C944.4,329.1,944.7,329.1,944.9,329.5z"/>
				</g>
				<g>
					<path class="st6" d="M928.4,309.8c0.7,1.2,0.9,3,0.3,3.4c-0.6,0.3-2.2-0.9-2.9-2.1c-0.7-1.2-0.2-1.7,0.4-2.1
						C926.9,308.7,927.8,308.7,928.4,309.8z"/>
					<path class="st7" d="M928.3,309.7c0.5,0.9,0.7,2.3,0.2,2.6c-0.5,0.3-1.7-0.7-2.2-1.6c-0.5-0.9-0.1-1.3,0.3-1.6
						C927.1,308.9,927.8,308.9,928.3,309.7z"/>
					<path class="st8" d="M928,309.9c0.2,0.4,0.3,1,0.2,1.1c-0.2,0.1-0.7-0.3-0.9-0.7c-0.2-0.4-0.1-0.6,0.1-0.7
						S927.8,309.5,928,309.9z"/>
				</g>
				<g>
					<path class="st6" d="M977.4,377.8c-0.8-1.1-1.2-2.9-0.6-3.3c0.6-0.4,2.3,0.7,3,1.8s0.3,1.7-0.2,2.1
						C979,378.7,978.2,378.9,977.4,377.8z"/>
					<path class="st7" d="M977.6,377.9c-0.6-0.8-0.9-2.3-0.5-2.6c0.4-0.3,1.7,0.5,2.3,1.4c0.6,0.8,0.3,1.3-0.2,1.6
						C978.8,378.6,978.2,378.7,977.6,377.9z"/>
					<path class="st8" d="M977.9,377.7c-0.3-0.4-0.4-1-0.3-1.1c0.2-0.1,0.7,0.3,1,0.6c0.3,0.4,0.1,0.6,0,0.7
						C978.4,378,978.1,378,977.9,377.7z"/>
				</g>
				<g>
					<path class="st6" d="M1057.2,363.2c-1.1,0.8-3,1.1-3.4,0.6c-0.4-0.6,0.7-2.2,1.8-3c1.1-0.8,1.7-0.3,2.1,0.3
						C1058.2,361.6,1058.3,362.4,1057.2,363.2z"/>
					<path class="st7" d="M1057.3,363c-0.8,0.6-2.3,0.9-2.6,0.4c-0.3-0.4,0.6-1.7,1.4-2.3c0.8-0.6,1.3-0.2,1.6,0.2
						C1058,361.8,1058.1,362.4,1057.3,363z"/>
					<path class="st8" d="M1057.1,362.7c-0.4,0.3-1,0.4-1.1,0.2s0.3-0.7,0.7-1c0.4-0.3,0.6-0.1,0.7,0S1057.5,362.5,1057.1,362.7z"/>
				</g>
				<g>
					<path class="st6" d="M1012.8,305.4c0,1.3-0.8,3.1-1.5,3.1c-0.7,0-1.4-1.9-1.3-3.3c0-1.3,0.8-1.6,1.5-1.5
						C1012,303.7,1012.8,304.1,1012.8,305.4z"/>
					<path class="st7" d="M1012.7,305.3c0,1-0.6,2.4-1.2,2.3s-1.1-1.5-1-2.5c0-1,0.6-1.2,1.1-1.2
						C1012.1,303.9,1012.7,304.2,1012.7,305.3z"/>
					<path class="st8" d="M1012.3,305.3c0,0.5-0.3,1.1-0.5,1c-0.2,0-0.4-0.7-0.4-1.1c0-0.5,0.2-0.5,0.4-0.5
						C1012.1,304.7,1012.3,304.8,1012.3,305.3z"/>
				</g>
				<g>
					<path class="st6" d="M1003.6,325.7c0,1.3-0.7,3.1-1.4,3.1c-0.7,0-1.4-1.9-1.4-3.2c0-1.3,0.7-1.6,1.4-1.6
						C1002.8,324,1003.6,324.4,1003.6,325.7z"/>
					<path class="st7" d="M1003.4,325.5c0,1-0.6,2.4-1.1,2.4s-1.1-1.4-1.1-2.5c0-1,0.6-1.2,1.1-1.2
						C1002.9,324.2,1003.4,324.5,1003.4,325.5z"/>
					<path class="st8" d="M1003.1,325.6c0,0.5-0.2,1.1-0.4,1.1c-0.2,0-0.4-0.6-0.4-1.1c0-0.5,0.2-0.5,0.4-0.5
						C1002.9,325,1003.1,325.1,1003.1,325.6z"/>
				</g>
				<g>
					<path class="st6" d="M1021,319.8c-1.2-0.5-2.6-1.8-2.3-2.5c0.3-0.6,2.3-0.6,3.5-0.1c1.2,0.5,1.2,1.3,0.9,1.9
						C1022.9,319.7,1022.3,320.3,1021,319.8z"/>
					<path class="st7" d="M1021.2,319.8c-1-0.4-2-1.4-1.8-1.9c0.2-0.5,1.8-0.5,2.7-0.1s0.9,1,0.7,1.5
						C1022.6,319.7,1022.2,320.1,1021.2,319.8z"/>
					<path class="st8" d="M1021.3,319.5c-0.4-0.2-0.9-0.6-0.8-0.8s0.8-0.2,1.2,0c0.4,0.2,0.4,0.4,0.3,0.6
						C1021.9,319.5,1021.7,319.6,1021.3,319.5z"/>
				</g>
				<g>
					<path class="st6" d="M979.8,334.6c-1.3-0.4-2.8-1.6-2.6-2.2c0.2-0.7,2.2-0.9,3.5-0.5c1.3,0.4,1.3,1.1,1.1,1.8
						C981.6,334.3,981,334.9,979.8,334.6z"/>
					<path class="st7" d="M979.9,334.5c-1-0.3-2.1-1.2-2-1.7c0.1-0.5,1.7-0.7,2.7-0.4c1,0.3,1,0.9,0.9,1.4
						C981.4,334.3,980.9,334.8,979.9,334.5z"/>
					<path class="st8" d="M980,334.2c-0.4-0.1-1-0.5-0.9-0.7c0.1-0.2,0.7-0.2,1.2-0.1c0.4,0.1,0.5,0.4,0.4,0.6
						C980.6,334.2,980.4,334.3,980,334.2z"/>
				</g>
				<g>
					<path class="st6" d="M903.2,319.3c1.3,0.2,2.9,1.2,2.8,1.9c-0.1,0.7-2.1,1.1-3.4,0.9c-1.3-0.2-1.4-1-1.3-1.7
						C901.4,319.7,901.9,319.1,903.2,319.3z"/>
					<path class="st7" d="M903.1,319.4c1,0.2,2.3,0.9,2.2,1.5c-0.1,0.5-1.6,0.9-2.6,0.7c-1-0.2-1.1-0.8-1-1.3
						C901.7,319.7,902.1,319.2,903.1,319.4z"/>
					<path class="st8" d="M903,319.7c0.4,0.1,1,0.4,1,0.6c0,0.2-0.7,0.3-1.2,0.3c-0.4-0.1-0.5-0.3-0.5-0.5
						C902.4,319.8,902.6,319.6,903,319.7z"/>
				</g>
				<g>
					<path class="st6" d="M937.1,325.1c-1.3,0.1-3.1-0.5-3.2-1.2c0-0.7,1.8-1.6,3.1-1.6c1.3-0.1,1.6,0.6,1.7,1.3
						C938.8,324.2,938.5,325,937.1,325.1z"/>
					<path class="st7" d="M937.3,324.9c-1,0.1-2.4-0.4-2.4-0.9c0-0.5,1.4-1.2,2.4-1.3c1-0.1,1.3,0.5,1.3,1
						C938.6,324.3,938.3,324.9,937.3,324.9z"/>
					<path class="st8" d="M937.3,324.6c-0.5,0-1.1-0.2-1.1-0.4c0-0.2,0.6-0.5,1.1-0.5c0.5,0,0.6,0.2,0.6,0.4
						C937.8,324.4,937.7,324.6,937.3,324.6z"/>
				</g>
				<g>
					<path class="st6" d="M979.1,307.3c-1.3,0.2-3.2-0.3-3.3-0.9c-0.1-0.7,1.6-1.7,2.9-1.9c1.3-0.2,1.7,0.5,1.8,1.2
						C980.7,306.3,980.5,307.1,979.1,307.3z"/>
					<path class="st7" d="M979.3,307.2c-1,0.2-2.4-0.2-2.5-0.7c-0.1-0.5,1.3-1.3,2.3-1.5c1-0.2,1.3,0.4,1.4,0.9
						C980.5,306.4,980.3,307,979.3,307.2z"/>
					<path class="st8" d="M979.2,306.8c-0.4,0.1-1.1-0.1-1.1-0.3c0-0.2,0.6-0.5,1-0.6c0.4-0.1,0.6,0.1,0.6,0.3
						C979.8,306.5,979.7,306.8,979.2,306.8z"/>
				</g>
			</g>
		</g>
	</g>
</g>
</svg>
